<svg xmlns="http://www.w3.org/2000/svg" xmlns:xlink="http://www.w3.org/1999/xlink" width="500" zoomAndPan="magnify" viewBox="0 0 375 374.999991" height="500" preserveAspectRatio="xMidYMid meet" version="1.0"><defs><g/><clipPath id="cdfbf3564a"><path d="M 220.03125 83.691406 L 288 83.691406 L 288 179 L 220.03125 179 Z M 220.03125 83.691406 " clip-rule="nonzero"/></clipPath><clipPath id="edf529b0a0"><path d="M 232.554688 125.644531 L 342.277344 125.644531 L 342.277344 233.675781 L 232.554688 233.675781 Z M 232.554688 125.644531 " clip-rule="nonzero"/></clipPath></defs><g clip-path="url(#cdfbf3564a)"><path fill="#f2f2f0" d="M 280.117188 178.792969 L 227.015625 178.792969 C 223.160156 178.792969 220.03125 175.671875 220.03125 171.828125 L 220.03125 90.671875 C 220.03125 86.828125 223.160156 83.710938 227.015625 83.710938 L 280.117188 83.710938 C 283.976562 83.710938 287.101562 86.828125 287.101562 90.671875 L 287.101562 171.828125 C 287.101562 175.671875 283.976562 178.792969 280.117188 178.792969 " fill-opacity="1" fill-rule="nonzero"/></g><path fill="#f1484d" d="M 276.40625 173.527344 L 230.730469 173.527344 C 227.347656 173.527344 224.609375 170.792969 224.609375 167.425781 L 224.609375 95.074219 C 224.609375 91.703125 227.347656 88.972656 230.730469 88.972656 L 276.40625 88.972656 C 279.785156 88.972656 282.527344 91.703125 282.527344 95.074219 L 282.527344 167.425781 C 282.527344 170.792969 279.785156 173.527344 276.40625 173.527344 " fill-opacity="1" fill-rule="nonzero"/><path fill="#f2f2f0" d="M 284.632812 195.117188 L 232.761719 183.796875 C 228.992188 182.976562 226.605469 179.261719 227.429688 175.507812 L 244.835938 96.226562 C 245.660156 92.472656 249.382812 90.09375 253.152344 90.914062 L 305.023438 102.234375 C 308.792969 103.054688 311.179688 106.765625 310.355469 110.523438 L 292.949219 189.804688 C 292.125 193.558594 288.402344 195.9375 284.632812 195.117188 " fill-opacity="1" fill-rule="nonzero"/><path fill="#72d1e5" d="M 282.136719 189.183594 L 237.515625 179.445312 C 234.214844 178.726562 232.121094 175.472656 232.84375 172.179688 L 248.359375 101.503906 C 249.082031 98.210938 252.347656 96.128906 255.648438 96.847656 L 300.269531 106.585938 C 303.570312 107.304688 305.664062 110.558594 304.941406 113.847656 L 289.425781 184.527344 C 288.703125 187.816406 285.4375 189.902344 282.136719 189.183594 " fill-opacity="1" fill-rule="nonzero"/><path fill="#f2f2f0" d="M 280.296875 214.484375 L 234.828125 187.136719 C 231.523438 185.148438 230.460938 180.871094 232.453125 177.578125 L 274.503906 108.089844 C 276.496094 104.796875 280.789062 103.738281 284.09375 105.722656 L 329.5625 133.070312 C 332.863281 135.054688 333.925781 139.335938 331.933594 142.628906 L 289.882812 212.117188 C 287.890625 215.410156 283.597656 216.46875 280.296875 214.484375 " fill-opacity="1" fill-rule="nonzero"/><path fill="#734eac" d="M 279.84375 208.0625 L 240.734375 184.542969 C 237.839844 182.800781 236.910156 179.050781 238.65625 176.164062 L 276.140625 114.214844 C 277.886719 111.328125 281.648438 110.402344 284.542969 112.140625 L 323.65625 135.664062 C 326.550781 137.40625 327.480469 141.15625 325.734375 144.042969 L 288.246094 205.992188 C 286.5 208.878906 282.738281 209.804688 279.84375 208.0625 " fill-opacity="1" fill-rule="nonzero"/><g clip-path="url(#edf529b0a0)"><path fill="#f2f2f0" d="M 270.703125 231.46875 L 234.453125 192.78125 C 231.820312 189.96875 231.972656 185.5625 234.789062 182.9375 L 294.277344 127.539062 C 297.097656 124.914062 301.515625 125.066406 304.148438 127.875 L 340.398438 166.5625 C 343.03125 169.371094 342.882812 173.777344 340.0625 176.402344 L 280.574219 231.800781 C 277.753906 234.425781 273.335938 234.277344 270.703125 231.46875 " fill-opacity="1" fill-rule="nonzero"/></g><path fill="#b2dc34" d="M 272.027344 225.167969 L 240.847656 191.890625 C 238.539062 189.429688 238.671875 185.566406 241.140625 183.265625 L 294.175781 133.878906 C 296.644531 131.578125 300.515625 131.710938 302.824219 134.171875 L 334.003906 167.449219 C 336.3125 169.914062 336.179688 173.773438 333.710938 176.074219 L 280.679688 225.464844 C 278.207031 227.761719 274.335938 227.632812 272.027344 225.167969 " fill-opacity="1" fill-rule="nonzero"/><g fill="#100a09" fill-opacity="1"><g transform="translate(89.786524, 204.035264)"><g><path d="M 48.125 -37.828125 C 49.78125 -35.304688 50.554688 -32.347656 50.453125 -28.953125 C 50.359375 -25.554688 49.945312 -22.460938 49.21875 -19.671875 C 48.550781 -17.140625 47.582031 -14.640625 46.3125 -12.171875 C 45.050781 -9.710938 43.359375 -7.648438 41.234375 -5.984375 C 37.835938 -3.253906 33.859375 -1.441406 29.296875 -0.546875 C 24.742188 0.347656 20.367188 -0.0351562 16.171875 -1.703125 C 12.109375 -3.359375 8.5625 -5.898438 5.53125 -9.328125 C 2.507812 -12.753906 0.53125 -16.664062 -0.40625 -21.0625 C -0.601562 -22.125 -0.765625 -23.203125 -0.890625 -24.296875 C -1.023438 -25.398438 -1.09375 -26.484375 -1.09375 -27.546875 C -1.03125 -31.210938 -0.566406 -34.789062 0.296875 -38.28125 C 1.160156 -41.78125 2.722656 -44.957031 4.984375 -47.8125 C 6.515625 -49.8125 8.296875 -51.84375 10.328125 -53.90625 C 12.359375 -55.96875 14.40625 -57.734375 16.46875 -59.203125 C 18.394531 -60.597656 20.394531 -61.894531 22.46875 -63.09375 C 23.457031 -63.6875 24.550781 -64.148438 25.75 -64.484375 C 26.945312 -64.816406 28.144531 -64.914062 29.34375 -64.78125 C 30.414062 -64.71875 31.25 -64.351562 31.84375 -63.6875 C 32.445312 -63.019531 32.75 -62.253906 32.75 -61.390625 C 33.082031 -60.796875 33.25 -60.179688 33.25 -59.546875 C 33.25 -58.910156 33.210938 -58.226562 33.140625 -57.5 C 33.078125 -57.101562 33.046875 -56.269531 33.046875 -55 C 33.046875 -53.738281 33.046875 -52.304688 33.046875 -50.703125 C 33.046875 -49.109375 33.0625 -47.597656 33.09375 -46.171875 C 33.125 -44.742188 33.140625 -43.628906 33.140625 -42.828125 L 33.4375 -33.34375 C 33.4375 -32.476562 33.453125 -31.628906 33.484375 -30.796875 C 33.523438 -29.960938 33.578125 -29.144531 33.640625 -28.34375 C 33.640625 -27.6875 33.65625 -27.003906 33.6875 -26.296875 C 33.71875 -25.597656 33.671875 -24.921875 33.546875 -24.265625 C 33.472656 -23.992188 33.285156 -23.789062 32.984375 -23.65625 C 32.691406 -23.519531 32.410156 -23.519531 32.140625 -23.65625 C 31.804688 -23.925781 31.609375 -24.09375 31.546875 -24.15625 C 31.410156 -24.09375 31.273438 -24.078125 31.140625 -24.109375 C 31.015625 -24.140625 30.882812 -24.15625 30.75 -24.15625 C 30.082031 -24.351562 29.53125 -24.6875 29.09375 -25.15625 C 28.664062 -25.625 28.285156 -26.15625 27.953125 -26.75 C 27.753906 -27.082031 27.601562 -27.414062 27.5 -27.75 C 27.40625 -28.082031 27.289062 -28.382812 27.15625 -28.65625 L 26.859375 -28.65625 L 26.859375 -28.34375 C 27.191406 -27.21875 27.722656 -26.035156 28.453125 -24.796875 C 29.179688 -23.566406 30.28125 -23.085938 31.75 -23.359375 C 32.476562 -23.492188 32.988281 -23.328125 33.28125 -22.859375 C 33.582031 -22.390625 33.648438 -21.890625 33.484375 -21.359375 C 33.328125 -20.828125 32.878906 -20.53125 32.140625 -20.46875 C 30.878906 -20.332031 29.628906 -20.628906 28.390625 -21.359375 C 27.160156 -22.097656 26.28125 -23.066406 25.75 -24.265625 C 25.082031 -25.785156 24.695312 -27.363281 24.59375 -29 C 24.5 -30.632812 24.421875 -32.25 24.359375 -33.84375 L 23.765625 -53.109375 C 23.554688 -52.972656 23.351562 -52.820312 23.15625 -52.65625 C 22.957031 -52.488281 22.726562 -52.335938 22.46875 -52.203125 C 19.070312 -49.609375 16.40625 -46.613281 14.46875 -43.21875 C 12.539062 -39.832031 11.175781 -36.007812 10.375 -31.75 C 10.3125 -31.34375 10.265625 -31.085938 10.234375 -30.984375 C 10.203125 -30.890625 10.1875 -30.675781 10.1875 -30.34375 C 10.113281 -30.082031 10.078125 -29.816406 10.078125 -29.546875 C 10.078125 -29.285156 10.078125 -29.019531 10.078125 -28.75 C 10.015625 -27.550781 10.082031 -26.382812 10.28125 -25.25 C 10.476562 -24.125 10.742188 -22.992188 11.078125 -21.859375 C 12.015625 -18.929688 13.410156 -16.269531 15.265625 -13.875 C 17.128906 -11.476562 19.691406 -10.179688 22.953125 -9.984375 C 23.160156 -9.984375 23.378906 -9.96875 23.609375 -9.9375 C 23.835938 -9.90625 24.054688 -9.890625 24.265625 -9.890625 C 28.117188 -10.015625 31.410156 -11.273438 34.140625 -13.671875 C 35.273438 -14.742188 36.140625 -15.84375 36.734375 -16.96875 C 37.671875 -18.5625 38.269531 -20.273438 38.53125 -22.109375 C 38.800781 -23.941406 38.898438 -25.722656 38.828125 -27.453125 C 38.765625 -28.253906 38.695312 -29.035156 38.625 -29.796875 C 38.5625 -30.566406 38.363281 -31.28125 38.03125 -31.9375 C 37.363281 -33.40625 37.179688 -34.890625 37.484375 -36.390625 C 37.785156 -37.890625 38.664062 -39.070312 40.125 -39.9375 C 41.53125 -40.800781 42.992188 -41 44.515625 -40.53125 C 46.046875 -40.0625 47.25 -39.160156 48.125 -37.828125 Z M 25.75 -54.5 C 25.289062 -54.101562 24.757812 -53.738281 24.15625 -53.40625 C 24.289062 -51.738281 24.457031 -50.070312 24.65625 -48.40625 C 24.851562 -46.75 25.019531 -45.085938 25.15625 -43.421875 L 25.65625 -43.421875 C 25.59375 -45.285156 25.5625 -47.132812 25.5625 -48.96875 C 25.5625 -50.800781 25.625 -52.644531 25.75 -54.5 Z M 37.9375 -32.140625 C 37.9375 -32.210938 37.914062 -32.25 37.875 -32.25 C 37.84375 -32.25 37.828125 -32.28125 37.828125 -32.34375 C 37.828125 -32.34375 37.84375 -32.328125 37.875 -32.296875 C 37.914062 -32.265625 37.9375 -32.210938 37.9375 -32.140625 Z M 38.03125 -31.9375 C 37.96875 -32.007812 37.9375 -32.078125 37.9375 -32.140625 C 37.9375 -32.078125 37.953125 -32.046875 37.984375 -32.046875 C 38.015625 -32.046875 38.03125 -32.007812 38.03125 -31.9375 Z M 38.03125 -31.9375 "/></g></g></g><g fill="#100a09" fill-opacity="1"><g transform="translate(137.401837, 204.035264)"><g><path d="M 51.015625 -31.34375 L 51.015625 -31.046875 C 50.878906 -29.847656 50.328125 -28.929688 49.359375 -28.296875 C 48.398438 -27.671875 47.351562 -27.421875 46.21875 -27.546875 C 46.15625 -25.085938 46.039062 -22.625 45.875 -20.15625 C 45.707031 -17.695312 45.554688 -15.238281 45.421875 -12.78125 C 45.359375 -11.507812 45.257812 -10.273438 45.125 -9.078125 C 44.988281 -7.878906 44.851562 -6.679688 44.71875 -5.484375 C 44.582031 -4.421875 44.347656 -3.171875 44.015625 -1.734375 C 43.691406 -0.304688 42.992188 0.703125 41.921875 1.296875 C 41.921875 1.359375 41.890625 1.390625 41.828125 1.390625 C 41.554688 1.796875 41.125 2.164062 40.53125 2.5 C 39.664062 3.03125 38.800781 3.175781 37.9375 2.9375 C 37.070312 2.707031 36.375 2.257812 35.84375 1.59375 C 35.375 1.0625 35.070312 0.429688 34.9375 -0.296875 C 34.800781 -1.023438 34.703125 -1.722656 34.640625 -2.390625 C 34.304688 -6.316406 34.109375 -10.175781 34.046875 -13.96875 C 33.835938 -17.769531 33.734375 -21.597656 33.734375 -25.453125 L 33.734375 -29.15625 C 33.410156 -29.15625 33.082031 -29.15625 32.75 -29.15625 C 32.414062 -29.15625 32.082031 -29.15625 31.75 -29.15625 C 27.882812 -29.15625 24.054688 -29.050781 20.265625 -28.84375 C 20.328125 -27.382812 20.375 -25.9375 20.40625 -24.5 C 20.445312 -23.070312 20.46875 -21.628906 20.46875 -20.171875 C 20.46875 -18.503906 20.46875 -16.835938 20.46875 -15.171875 C 20.46875 -13.503906 20.300781 -11.875 19.96875 -10.28125 L 19.96875 -9.984375 C 19.894531 -9.585938 19.859375 -9.171875 19.859375 -8.734375 C 19.859375 -8.304688 19.828125 -7.890625 19.765625 -7.484375 C 19.703125 -6.617188 19.550781 -5.6875 19.3125 -4.6875 C 19.082031 -3.6875 18.664062 -2.859375 18.0625 -2.203125 C 16.800781 -0.929688 15.367188 -0.257812 13.765625 -0.1875 C 12.171875 -0.125 10.910156 -0.960938 9.984375 -2.703125 C 9.847656 -2.960938 9.726562 -3.207031 9.625 -3.4375 C 9.53125 -3.675781 9.414062 -3.925781 9.28125 -4.1875 C 9.019531 -4.1875 8.738281 -4.285156 8.4375 -4.484375 C 8.132812 -4.691406 7.984375 -4.960938 7.984375 -5.296875 C 7.722656 -9.015625 7.523438 -12.738281 7.390625 -16.46875 C 7.253906 -20.195312 7.117188 -23.890625 6.984375 -27.546875 L 5.984375 -27.15625 C 4.859375 -26.6875 3.796875 -26.734375 2.796875 -27.296875 C 1.796875 -27.867188 1.128906 -28.71875 0.796875 -29.84375 C 0.460938 -30.976562 0.695312 -32.078125 1.5 -33.140625 C 1.894531 -33.671875 2.425781 -34.238281 3.09375 -34.84375 C 3.488281 -35.507812 4.003906 -36.039062 4.640625 -36.4375 C 5.273438 -36.832031 5.957031 -37.164062 6.6875 -37.4375 C 6.625 -39.4375 6.570312 -41.445312 6.53125 -43.46875 C 6.5 -45.5 6.421875 -47.546875 6.296875 -49.609375 C 6.222656 -51.941406 6.132812 -54.304688 6.03125 -56.703125 C 5.9375 -59.097656 5.921875 -61.460938 5.984375 -63.796875 C 5.984375 -63.921875 6.035156 -63.984375 6.140625 -63.984375 C 6.242188 -63.984375 6.296875 -63.921875 6.296875 -63.796875 C 6.828125 -61.398438 7.191406 -58.96875 7.390625 -56.5 C 7.585938 -54.039062 7.820312 -51.578125 8.09375 -49.109375 C 8.289062 -47.242188 8.488281 -45.363281 8.6875 -43.46875 C 8.882812 -41.570312 9.050781 -39.691406 9.1875 -37.828125 C 9.382812 -38.035156 9.484375 -38.140625 9.484375 -38.140625 L 9.6875 -38.140625 C 9.613281 -41.992188 9.507812 -45.847656 9.375 -49.703125 C 9.25 -53.566406 8.921875 -57.394531 8.390625 -61.1875 C 8.253906 -62.320312 8.550781 -63.351562 9.28125 -64.28125 C 10.007812 -65.21875 10.910156 -65.753906 11.984375 -65.890625 C 13.046875 -66.023438 14.078125 -65.738281 15.078125 -65.03125 C 16.078125 -64.332031 16.609375 -63.421875 16.671875 -62.296875 L 16.671875 -62.09375 C 17.003906 -62.09375 17.367188 -61.992188 17.765625 -61.796875 C 18.296875 -61.597656 18.660156 -61.128906 18.859375 -60.390625 C 19.066406 -59.660156 19.203125 -59.0625 19.265625 -58.59375 L 19.5625 -53.8125 C 19.695312 -51.539062 19.847656 -49.257812 20.015625 -46.96875 C 20.179688 -44.675781 20.332031 -42.394531 20.46875 -40.125 L 20.671875 -40.125 C 22.398438 -40.394531 24.144531 -40.613281 25.90625 -40.78125 C 27.664062 -40.945312 29.410156 -41.097656 31.140625 -41.234375 C 31.671875 -41.296875 32.203125 -41.359375 32.734375 -41.421875 C 33.273438 -41.492188 33.8125 -41.5625 34.34375 -41.625 C 34.269531 -43.6875 34.164062 -45.75 34.03125 -47.8125 C 33.90625 -49.875 33.773438 -51.9375 33.640625 -54 C 33.378906 -55.738281 33.265625 -57.519531 33.296875 -59.34375 C 33.328125 -61.175781 34.175781 -62.660156 35.84375 -63.796875 C 37.375 -64.785156 39.035156 -65.210938 40.828125 -65.078125 C 42.628906 -64.953125 44.023438 -64.023438 45.015625 -62.296875 C 45.953125 -60.765625 46.453125 -58.984375 46.515625 -56.953125 C 46.585938 -54.921875 46.65625 -53.039062 46.71875 -51.3125 C 46.78125 -51.175781 46.796875 -51.023438 46.765625 -50.859375 C 46.734375 -50.691406 46.71875 -50.539062 46.71875 -50.40625 C 46.851562 -48.082031 46.851562 -45.722656 46.71875 -43.328125 L 46.71875 -41.125 C 47.113281 -41.0625 47.507812 -40.976562 47.90625 -40.875 C 48.3125 -40.78125 48.75 -40.664062 49.21875 -40.53125 C 50.550781 -40.132812 51.484375 -39.367188 52.015625 -38.234375 C 52.546875 -37.097656 52.726562 -35.898438 52.5625 -34.640625 C 52.394531 -33.378906 51.878906 -32.28125 51.015625 -31.34375 Z M 23.859375 -31.84375 C 23.328125 -31.84375 22.773438 -31.828125 22.203125 -31.796875 C 21.640625 -31.765625 21.09375 -31.75 20.5625 -31.75 C 20.425781 -31.476562 20.296875 -31.3125 20.171875 -31.25 L 20.171875 -30.84375 C 24.097656 -31.25 27.957031 -31.453125 31.75 -31.453125 C 32.082031 -31.378906 32.429688 -31.34375 32.796875 -31.34375 C 33.160156 -31.34375 33.472656 -31.34375 33.734375 -31.34375 L 33.734375 -31.84375 C 32.078125 -31.90625 30.429688 -31.953125 28.796875 -31.984375 C 27.171875 -32.023438 25.523438 -31.976562 23.859375 -31.84375 Z M 23.859375 -31.84375 "/></g></g></g><g fill="#100a09" fill-opacity="1"><g transform="translate(186.015391, 204.035264)"><g><path d="M 36.53125 -3 C 36.132812 -3.125 35.6875 -3.816406 35.1875 -5.078125 C 34.6875 -6.347656 34.15625 -7.914062 33.59375 -9.78125 C 33.03125 -11.644531 32.5 -13.570312 32 -15.5625 C 31.5 -17.5625 31.046875 -19.359375 30.640625 -20.953125 C 30.242188 -22.554688 29.976562 -23.722656 29.84375 -24.453125 L 22.0625 -24.359375 C 21.332031 -21.359375 20.695312 -18.378906 20.15625 -15.421875 C 19.625 -12.460938 19.226562 -9.453125 18.96875 -6.390625 C 18.96875 -5.785156 18.679688 -5.484375 18.109375 -5.484375 C 17.546875 -5.484375 17.300781 -5.785156 17.375 -6.390625 C 17.632812 -9.378906 18.015625 -12.390625 18.515625 -15.421875 C 19.015625 -18.453125 19.734375 -21.429688 20.671875 -24.359375 L 19.765625 -24.359375 C 19.429688 -23.160156 19.097656 -21.710938 18.765625 -20.015625 C 18.429688 -18.316406 18.113281 -16.648438 17.8125 -15.015625 C 17.519531 -13.390625 17.269531 -12.023438 17.0625 -10.921875 C 16.863281 -9.828125 16.765625 -9.28125 16.765625 -9.28125 L 16.171875 -4.796875 C 15.972656 -2.523438 15.207031 -0.894531 13.875 0.09375 C 12.539062 1.09375 11.078125 1.492188 9.484375 1.296875 C 7.890625 1.097656 6.539062 0.332031 5.4375 -1 C 4.34375 -2.332031 3.960938 -4.160156 4.296875 -6.484375 C 4.691406 -9.410156 5.15625 -12.335938 5.6875 -15.265625 C 6.21875 -18.203125 6.851562 -21.097656 7.59375 -23.953125 C 7.125 -23.890625 6.65625 -23.84375 6.1875 -23.8125 C 5.71875 -23.78125 5.285156 -23.765625 4.890625 -23.765625 C 5.023438 -24.097656 5.054688 -24.394531 4.984375 -24.65625 C 3.390625 -25.050781 2.226562 -25.914062 1.5 -27.25 C 0.769531 -28.582031 0.566406 -30.0625 0.890625 -31.6875 C 1.222656 -33.320312 2.15625 -34.820312 3.6875 -36.1875 C 5.21875 -37.550781 7.484375 -38.46875 10.484375 -38.9375 C 11.210938 -42.257812 12.007812 -45.535156 12.875 -48.765625 C 13.738281 -51.992188 14.804688 -55.140625 16.078125 -58.203125 C 16.671875 -59.535156 17.332031 -60.984375 18.0625 -62.546875 C 18.800781 -64.109375 19.71875 -65.46875 20.8125 -66.625 C 21.914062 -67.789062 23.296875 -68.375 24.953125 -68.375 C 25.816406 -68.445312 26.679688 -68.21875 27.546875 -67.6875 C 28.410156 -67.15625 29.046875 -66.488281 29.453125 -65.6875 C 30.910156 -65.625 32.125 -65.109375 33.09375 -64.140625 C 34.0625 -63.171875 34.609375 -61.890625 34.734375 -60.296875 C 34.867188 -58.296875 35.035156 -56.28125 35.234375 -54.25 C 35.429688 -52.226562 35.632812 -50.25 35.84375 -48.3125 C 35.90625 -48.25 35.96875 -48.21875 36.03125 -48.21875 C 36.101562 -49.945312 36.1875 -51.660156 36.28125 -53.359375 C 36.382812 -55.054688 36.535156 -56.738281 36.734375 -58.40625 C 36.734375 -58.664062 36.78125 -58.0625 36.875 -56.59375 C 36.976562 -55.132812 37.097656 -53.253906 37.234375 -50.953125 C 37.367188 -48.660156 37.5 -46.363281 37.625 -44.0625 C 37.757812 -41.769531 37.929688 -39.859375 38.140625 -38.328125 C 40.066406 -38.128906 41.5625 -37.476562 42.625 -36.375 C 43.6875 -35.28125 44.347656 -34.019531 44.609375 -32.59375 C 44.878906 -31.164062 44.75 -29.75 44.21875 -28.34375 C 43.6875 -26.945312 42.722656 -25.816406 41.328125 -24.953125 C 41.992188 -22.023438 42.691406 -18.710938 43.421875 -15.015625 C 44.148438 -11.328125 44.71875 -7.984375 45.125 -4.984375 C 45.382812 -2.722656 45.195312 -1.015625 44.5625 0.140625 C 43.9375 1.304688 43.109375 1.957031 42.078125 2.09375 C 41.046875 2.226562 40.015625 1.863281 38.984375 1 C 37.953125 0.132812 37.132812 -1.195312 36.53125 -3 Z M 21.765625 -37.328125 C 22.492188 -37.460938 23.441406 -37.546875 24.609375 -37.578125 C 25.773438 -37.617188 26.691406 -37.671875 27.359375 -37.734375 C 27.222656 -38.597656 27.070312 -39.828125 26.90625 -41.421875 C 26.738281 -43.023438 26.535156 -44.738281 26.296875 -46.5625 C 26.066406 -48.394531 25.785156 -50.078125 25.453125 -51.609375 C 24.660156 -48.816406 23.960938 -46.320312 23.359375 -44.125 C 22.765625 -41.925781 22.234375 -39.660156 21.765625 -37.328125 Z M 21.765625 -37.328125 "/></g></g></g><g fill="#100a09" fill-opacity="1"><g transform="translate(228.539665, 204.035264)"><g><path d="M 1.390625 -57.59375 C 1.191406 -58.257812 1.257812 -58.925781 1.59375 -59.59375 C 1.925781 -60.257812 2.257812 -60.828125 2.59375 -61.296875 C 3.257812 -62.296875 4.09375 -63.128906 5.09375 -63.796875 C 5.351562 -64.054688 5.550781 -64.222656 5.6875 -64.296875 C 7.019531 -65.222656 8.429688 -65.914062 9.921875 -66.375 C 11.421875 -66.84375 12.9375 -66.878906 14.46875 -66.484375 C 15.800781 -66.148438 16.96875 -65.597656 17.96875 -64.828125 C 18.96875 -64.066406 19.703125 -63.019531 20.171875 -61.6875 C 20.367188 -61.15625 20.332031 -60.65625 20.0625 -60.1875 C 19.800781 -59.726562 19.46875 -59.332031 19.0625 -59 C 17.40625 -57.800781 15.644531 -57.003906 13.78125 -56.609375 C 13.175781 -55.941406 12.375 -55.457031 11.375 -55.15625 C 10.382812 -54.851562 9.421875 -54.703125 8.484375 -54.703125 C 7.679688 -54.703125 6.894531 -54.769531 6.125 -54.90625 C 5.363281 -55.039062 4.617188 -55.238281 3.890625 -55.5 C 3.421875 -55.632812 2.921875 -55.898438 2.390625 -56.296875 C 1.859375 -56.703125 1.523438 -57.132812 1.390625 -57.59375 Z M 8.09375 -55.203125 C 9.550781 -55.203125 10.515625 -55.351562 10.984375 -55.65625 C 11.453125 -55.957031 11.648438 -56.109375 11.578125 -56.109375 C 10.984375 -55.972656 10.316406 -55.867188 9.578125 -55.796875 C 8.847656 -55.734375 7.914062 -55.800781 6.78125 -56 C 5.320312 -56.332031 4.34375 -57 3.84375 -58 C 3.34375 -59 3.328125 -60.0625 3.796875 -61.1875 C 3.328125 -60.65625 2.894531 -60.023438 2.5 -59.296875 C 2.300781 -58.828125 2.203125 -58.410156 2.203125 -58.046875 C 2.203125 -57.679688 2.398438 -57.332031 2.796875 -57 C 3.460938 -56.46875 4.09375 -56.101562 4.6875 -55.90625 C 5.6875 -55.570312 6.820312 -55.335938 8.09375 -55.203125 Z M 18.46875 -5.296875 C 18 -4.492188 17.300781 -3.925781 16.375 -3.59375 C 16.4375 -3.257812 16.398438 -2.910156 16.265625 -2.546875 C 16.140625 -2.179688 15.84375 -1.898438 15.375 -1.703125 C 14.175781 -1.097656 12.894531 -0.925781 11.53125 -1.1875 C 10.164062 -1.457031 9.019531 -2.0625 8.09375 -3 L 7.890625 -3.296875 C 7.421875 -3.492188 6.921875 -3.789062 6.390625 -4.1875 C 5.328125 -5.1875 4.675781 -6.382812 4.4375 -7.78125 C 4.207031 -9.1875 3.992188 -10.585938 3.796875 -11.984375 C 3.328125 -15.703125 2.972656 -19.410156 2.734375 -23.109375 C 2.503906 -26.804688 2.425781 -30.515625 2.5 -34.234375 C 2.5 -36.035156 2.5 -37.847656 2.5 -39.671875 C 2.5 -41.503906 2.597656 -43.320312 2.796875 -45.125 C 2.929688 -46.050781 3.164062 -46.960938 3.5 -47.859375 C 3.832031 -48.765625 4.296875 -49.515625 4.890625 -50.109375 C 5.023438 -50.304688 5.15625 -50.488281 5.28125 -50.65625 C 5.414062 -50.820312 5.550781 -50.972656 5.6875 -51.109375 C 6.414062 -51.578125 7.363281 -52.160156 8.53125 -52.859375 C 9.695312 -53.554688 10.84375 -53.953125 11.96875 -54.046875 C 13.101562 -54.148438 13.9375 -53.535156 14.46875 -52.203125 C 14.800781 -52.273438 15.132812 -52.210938 15.46875 -52.015625 C 15.800781 -51.816406 16.003906 -51.484375 16.078125 -51.015625 C 16.078125 -49.148438 16.039062 -47.316406 15.96875 -45.515625 C 15.90625 -43.722656 15.875 -41.894531 15.875 -40.03125 C 15.875 -38.226562 15.90625 -36.410156 15.96875 -34.578125 C 16.039062 -32.753906 16.109375 -30.910156 16.171875 -29.046875 C 16.171875 -28.710938 16.1875 -28.328125 16.21875 -27.890625 C 16.25 -27.460938 16.300781 -27.015625 16.375 -26.546875 C 16.4375 -26.617188 16.515625 -26.351562 16.609375 -25.75 C 16.710938 -25.15625 16.796875 -24.570312 16.859375 -24 C 16.929688 -23.4375 17.003906 -23.15625 17.078125 -23.15625 C 17.003906 -25.550781 16.953125 -28.210938 16.921875 -31.140625 C 16.890625 -34.066406 16.890625 -36.992188 16.921875 -39.921875 C 16.953125 -42.859375 17.035156 -45.488281 17.171875 -47.8125 C 17.171875 -47.945312 17.285156 -48.03125 17.515625 -48.0625 C 17.753906 -48.101562 17.875 -48.085938 17.875 -48.015625 C 17.664062 -40.890625 17.757812 -33.785156 18.15625 -26.703125 C 18.5625 -19.617188 19.234375 -12.515625 20.171875 -5.390625 C 20.234375 -4.921875 20 -4.671875 19.46875 -4.640625 C 18.9375 -4.609375 18.601562 -4.828125 18.46875 -5.296875 Z M 7.390625 -46.015625 C 6.660156 -43.753906 6.242188 -41.375 6.140625 -38.875 C 6.035156 -36.382812 5.921875 -33.972656 5.796875 -31.640625 L 5.796875 -30.640625 C 5.796875 -30.578125 5.796875 -30.546875 5.796875 -30.546875 C 5.796875 -30.546875 5.796875 -30.515625 5.796875 -30.453125 C 5.921875 -29.253906 6.050781 -28.054688 6.1875 -26.859375 C 6.320312 -25.660156 6.457031 -24.460938 6.59375 -23.265625 L 6.890625 -23.265625 C 6.890625 -25.523438 6.867188 -27.769531 6.828125 -30 C 6.796875 -32.226562 6.816406 -34.472656 6.890625 -36.734375 C 6.890625 -38.460938 6.972656 -40.207031 7.140625 -41.96875 C 7.304688 -43.738281 7.65625 -45.421875 8.1875 -47.015625 L 8.09375 -47.015625 C 7.625 -46.679688 7.390625 -46.347656 7.390625 -46.015625 Z M 7.390625 -46.015625 "/></g></g></g><g fill="#100a09" fill-opacity="1"><g transform="translate(245.109706, 204.035264)"><g><path d="M 43.328125 0.296875 C 42.722656 0.703125 42.054688 0.703125 41.328125 0.296875 C 39.992188 -0.296875 39.09375 -1.273438 38.625 -2.640625 C 38.164062 -4.003906 37.800781 -5.320312 37.53125 -6.59375 L 36.9375 -9.984375 L 19.5625 -41.03125 C 19.300781 -41.363281 19.035156 -41.726562 18.765625 -42.125 C 18.503906 -42.519531 18.238281 -42.882812 17.96875 -43.21875 C 18.03125 -39.832031 18.046875 -36.441406 18.015625 -33.046875 C 17.984375 -29.648438 17.96875 -26.253906 17.96875 -22.859375 C 18.101562 -20.859375 18.1875 -18.859375 18.21875 -16.859375 C 18.25 -14.867188 18.300781 -12.875 18.375 -10.875 C 18.4375 -9.882812 18.5 -8.671875 18.5625 -7.234375 C 18.632812 -5.804688 18.484375 -4.523438 18.109375 -3.390625 C 17.742188 -2.265625 16.863281 -1.597656 15.46875 -1.390625 C 14.875 -0.398438 14.0625 0.273438 13.03125 0.640625 C 12 1.015625 10.914062 1.035156 9.78125 0.703125 C 8.71875 0.429688 7.785156 -0.203125 6.984375 -1.203125 C 6.722656 -5.390625 6.507812 -9.578125 6.34375 -13.765625 C 6.175781 -17.960938 6.023438 -22.160156 5.890625 -26.359375 C 5.753906 -29.753906 5.648438 -33.164062 5.578125 -36.59375 C 5.515625 -40.019531 5.421875 -43.425781 5.296875 -46.8125 C 5.222656 -49.007812 5.171875 -51.207031 5.140625 -53.40625 C 5.109375 -55.601562 5.160156 -57.765625 5.296875 -59.890625 C 5.960938 -60.429688 6.59375 -60.734375 7.1875 -60.796875 C 7.1875 -61.597656 7.453125 -62.363281 7.984375 -63.09375 C 8.785156 -64.09375 9.679688 -64.570312 10.671875 -64.53125 C 11.671875 -64.5 12.703125 -64.132812 13.765625 -63.4375 C 14.835938 -62.738281 15.804688 -61.941406 16.671875 -61.046875 C 17.535156 -60.148438 18.203125 -59.398438 18.671875 -58.796875 C 20.398438 -56.535156 21.976562 -54.222656 23.40625 -51.859375 C 24.84375 -49.492188 26.222656 -47.082031 27.546875 -44.625 C 28.679688 -42.695312 29.78125 -40.734375 30.84375 -38.734375 C 31.90625 -36.734375 32.9375 -34.703125 33.9375 -32.640625 C 34.070312 -32.378906 34.140625 -32.046875 34.140625 -31.640625 L 35.734375 -28.546875 C 35.472656 -31.078125 35.109375 -33.640625 34.640625 -36.234375 C 34.171875 -38.828125 33.707031 -41.390625 33.25 -43.921875 C 32.914062 -45.722656 32.582031 -47.519531 32.25 -49.3125 C 31.914062 -51.113281 31.484375 -52.910156 30.953125 -54.703125 C 30.679688 -55.640625 30.425781 -56.585938 30.1875 -57.546875 C 29.957031 -58.515625 30.109375 -59.5 30.640625 -60.5 C 31.109375 -61.289062 31.675781 -61.890625 32.34375 -62.296875 C 32.34375 -62.359375 32.359375 -62.390625 32.390625 -62.390625 C 32.421875 -62.390625 32.4375 -62.425781 32.4375 -62.5 C 33.039062 -63.625 33.957031 -64.1875 35.1875 -64.1875 C 36.414062 -64.1875 37.460938 -63.890625 38.328125 -63.296875 C 38.535156 -63.222656 38.769531 -63.054688 39.03125 -62.796875 C 39.226562 -61.859375 39.457031 -60.90625 39.71875 -59.9375 C 39.988281 -58.976562 40.257812 -58.035156 40.53125 -57.109375 C 41.332031 -54.242188 42 -51.296875 42.53125 -48.265625 C 43.0625 -45.234375 43.5625 -42.222656 44.03125 -39.234375 C 45.019531 -33.171875 45.8125 -27.046875 46.40625 -20.859375 C 47.007812 -14.671875 47.515625 -8.515625 47.921875 -2.390625 C 47.390625 -1.660156 46.722656 -1.03125 45.921875 -0.5 C 45.117188 0.03125 44.253906 0.296875 43.328125 0.296875 Z M 48.921875 -3.390625 C 48.785156 -3.390625 48.648438 -3.289062 48.515625 -3.09375 C 47.847656 -12.613281 46.929688 -22.113281 45.765625 -31.59375 C 44.609375 -41.082031 42.992188 -50.453125 40.921875 -59.703125 C 40.796875 -60.097656 40.898438 -60.460938 41.234375 -60.796875 C 41.492188 -61.128906 41.859375 -61.273438 42.328125 -61.234375 C 42.796875 -61.203125 43.0625 -60.921875 43.125 -60.390625 C 44.925781 -51.742188 46.34375 -43.007812 47.375 -34.1875 C 48.40625 -25.375 48.882812 -16.539062 48.8125 -7.6875 C 48.882812 -7.351562 48.9375 -6.738281 48.96875 -5.84375 C 49 -4.945312 48.984375 -4.128906 48.921875 -3.390625 Z M 5.1875 -10.6875 C 4.925781 -14.207031 4.726562 -17.878906 4.59375 -21.703125 C 4.457031 -25.535156 4.320312 -29.25 4.1875 -32.84375 C 4.0625 -36.375 3.960938 -39.9375 3.890625 -43.53125 C 3.828125 -47.125 3.757812 -50.71875 3.6875 -54.3125 C 3.625 -55.175781 3.660156 -56.054688 3.796875 -56.953125 C 3.929688 -57.847656 4.164062 -58.695312 4.5 -59.5 C 4.425781 -57.90625 4.40625 -56.304688 4.4375 -54.703125 C 4.476562 -53.109375 4.53125 -51.515625 4.59375 -49.921875 C 4.65625 -46.453125 4.734375 -42.988281 4.828125 -39.53125 C 4.929688 -36.070312 5.019531 -32.578125 5.09375 -29.046875 L 5.984375 -6.59375 C 5.984375 -6.59375 5.898438 -6.738281 5.734375 -7.03125 C 5.566406 -7.332031 5.382812 -8.550781 5.1875 -10.6875 Z M 16.375 -15.578125 L 16.078125 -15.28125 C 16.078125 -15.28125 16.054688 -15.28125 16.015625 -15.28125 C 15.984375 -15.28125 15.9375 -15.242188 15.875 -15.171875 L 15.765625 -9.1875 C 15.765625 -8.382812 15.914062 -7.429688 16.21875 -6.328125 C 16.519531 -5.234375 16.503906 -4.054688 16.171875 -2.796875 C 16.835938 -3.929688 17.101562 -5.0625 16.96875 -6.1875 C 16.90625 -7.125 16.851562 -8.085938 16.8125 -9.078125 C 16.78125 -10.078125 16.703125 -11.078125 16.578125 -12.078125 C 16.578125 -12.679688 16.554688 -13.265625 16.515625 -13.828125 C 16.484375 -14.390625 16.4375 -14.972656 16.375 -15.578125 Z M 16.375 -15.578125 "/></g></g></g><path stroke-linecap="butt" transform="matrix(0.966818, 0, 0, 0.966818, 39.472641, 96.758086)" fill="none" stroke-linejoin="miter" d="M 91.109104 63.873046 C 92.838359 66.479049 93.646422 69.537567 93.529253 73.0486 C 93.428245 76.563674 92.999971 79.763603 92.244433 82.656468 C 91.553539 85.278632 90.555581 87.864433 89.242479 90.421952 C 87.949578 92.959269 86.200122 95.084475 83.998151 96.797568 C 80.487118 99.621748 76.370038 101.504534 71.64691 102.445927 C 66.939944 103.371159 62.418832 102.967128 58.083575 101.233833 C 53.881648 99.52074 50.209002 96.890495 47.065638 93.343099 C 43.938434 89.799743 41.898075 85.755389 40.940521 81.218116 C 40.722344 80.11107 40.54457 78.991903 40.41124 77.864655 C 40.277909 76.721246 40.209224 75.606119 40.209224 74.511194 C 40.277909 70.713298 40.754667 67.00833 41.647576 63.396289 C 42.552606 59.780208 44.176813 56.495432 46.512114 53.537922 C 48.091877 51.469281 49.93022 49.368318 52.031184 47.235032 C 54.132147 45.101746 56.249272 43.279564 58.386598 41.764446 C 60.386554 40.318014 62.451155 38.976629 64.588481 37.732212 C 65.61068 37.110004 66.737928 36.629207 67.966184 36.29386 C 69.2106 35.958514 70.450977 35.857507 71.695394 35.990837 C 72.80648 36.059522 73.663027 36.439312 74.269074 37.126165 C 74.891282 37.817059 75.202387 38.60492 75.202387 39.49783 C 75.553894 40.115998 75.731668 40.758408 75.731668 41.412939 C 75.731668 42.06747 75.695305 42.774525 75.63066 43.530063 C 75.561975 43.934095 75.529652 44.790642 75.529652 46.099703 C 75.529652 47.412806 75.529652 48.899641 75.529652 50.564251 C 75.529652 52.208659 75.545813 53.77226 75.578136 55.251015 C 75.614499 56.72977 75.63066 57.88126 75.63066 58.705484 L 75.933684 68.511327 C 75.933684 69.404237 75.949845 70.285025 75.982167 71.161773 C 76.01449 72.01832 76.067014 72.858705 76.131659 73.678889 C 76.131659 74.369783 76.151861 75.076838 76.184183 75.800054 C 76.216506 76.51923 76.168022 77.226285 76.030651 77.917179 C 75.966006 78.18384 75.772071 78.385855 75.452886 78.519186 C 75.149863 78.656556 74.863 78.656556 74.59634 78.519186 C 74.240792 78.252525 74.030696 78.082832 73.96605 78.018187 C 73.83272 78.082832 73.695349 78.098993 73.562019 78.066671 C 73.428689 78.034348 73.291318 78.018187 73.157988 78.018187 C 72.471134 77.80001 71.89741 77.452543 71.444894 76.983866 C 70.992379 76.494988 70.596428 75.941465 70.261082 75.319257 C 70.059067 74.983911 69.897454 74.648565 69.780285 74.309178 C 69.679277 73.957671 69.562108 73.638486 69.428777 73.351624 L 69.125754 73.351624 L 69.125754 73.678889 C 69.4611 74.838459 70.006542 76.058634 70.762081 77.335374 C 71.52166 78.612113 72.661029 79.117152 74.192308 78.850492 C 74.947847 78.69696 75.477128 78.866653 75.780152 79.351491 C 76.083175 79.840369 76.151861 80.361569 75.982167 80.915092 C 75.812474 81.452454 75.351878 81.755478 74.59634 81.824163 C 73.283237 81.973655 71.990337 81.670631 70.713597 80.915092 C 69.453019 80.143392 68.543949 79.141394 67.990426 77.917179 C 67.303572 76.321255 66.907621 74.680887 66.806613 73.000116 C 66.705606 71.319346 66.612678 69.646655 66.527832 67.982046 L 65.921785 48.067336 C 65.719769 48.200667 65.513713 48.362279 65.291496 48.548134 C 65.09352 48.713787 64.855142 48.867319 64.588481 49.000649 C 61.073407 51.687458 58.317913 54.79042 56.317957 58.301453 C 54.318002 61.800365 52.907932 65.747752 52.083708 70.151695 C 52.015023 70.571887 51.966539 70.830468 51.930176 70.931475 C 51.897854 71.032483 51.881692 71.258741 51.881692 71.614289 C 51.813007 71.880949 51.780684 72.159731 51.780684 72.446593 C 51.780684 72.713254 51.780684 72.983955 51.780684 73.250616 C 51.711999 74.495033 51.780684 75.707127 51.9827 76.882858 C 52.184716 78.042429 52.459457 79.21008 52.815005 80.385811 C 53.772559 83.412006 55.210911 86.167501 57.12602 88.656334 C 59.057291 91.124967 61.711777 92.462311 65.09352 92.664326 C 65.291496 92.664326 65.513713 92.680488 65.748051 92.71281 C 65.998551 92.749173 66.224808 92.765334 66.426824 92.765334 C 70.426735 92.632004 73.840801 91.326982 76.66094 88.85835 C 77.824551 87.747264 78.71342 86.611935 79.335628 85.452365 C 80.309344 83.791796 80.931552 82.018098 81.202253 80.135311 C 81.468914 78.236364 81.569922 76.39398 81.501237 74.612202 C 81.436592 73.771816 81.367906 72.959713 81.303261 72.167812 C 81.234576 71.37995 81.03256 70.640573 80.697214 69.949679 C 80.00632 68.438601 79.812385 66.907322 80.115409 65.359882 C 80.418433 63.816482 81.335584 62.596307 82.862823 61.707438 C 84.309255 60.798367 85.824373 60.588271 87.404136 61.077149 C 88.983899 61.561986 90.216195 62.495299 91.109104 63.873046 Z M 67.990426 46.628985 C 67.501548 47.033016 66.948024 47.412806 66.325816 47.764313 C 66.463187 49.477406 66.62884 51.20262 66.830855 52.931875 C 67.049032 54.649009 67.226806 56.362102 67.360137 58.075195 L 67.889418 58.075195 C 67.820732 56.160086 67.78841 54.253058 67.78841 52.35411 C 67.78841 50.455162 67.857095 48.548134 67.990426 46.628985 Z M 80.571964 69.747663 C 80.571964 69.678978 80.551763 69.646655 80.51944 69.646655 C 80.487118 69.646655 80.470957 69.614333 80.470957 69.545648 C 80.470957 69.545648 80.487118 69.561809 80.51944 69.598172 C 80.551763 69.630494 80.571964 69.678978 80.571964 69.747663 Z M 80.697214 69.949679 C 80.612368 69.880994 80.571964 69.816349 80.571964 69.747663 C 80.571964 69.816349 80.588126 69.848671 80.620448 69.848671 C 80.672972 69.848671 80.697214 69.880994 80.697214 69.949679 Z M 143.358449 70.579968 L 143.358449 70.882992 C 143.225119 72.127408 142.651394 73.076882 141.645356 73.731413 C 140.651439 74.385944 139.568635 74.648565 138.392903 74.511194 C 138.324218 77.052552 138.207049 79.59795 138.037355 82.151428 C 137.871703 84.688746 137.718171 87.234144 137.58484 89.791663 C 137.516155 91.100725 137.407066 92.377464 137.257575 93.621881 C 137.124244 94.850136 136.986874 96.082432 136.853543 97.326849 C 136.720213 98.421774 136.473754 99.706594 136.122246 101.185349 C 135.7869 102.664104 135.063684 103.714586 133.952598 104.336794 C 133.952598 104.401439 133.920275 104.437802 133.85159 104.437802 C 133.584929 104.857995 133.140494 105.233744 132.518286 105.573131 C 131.625377 106.126654 130.728427 106.276145 129.819356 106.025646 C 128.930487 105.791308 128.207271 105.334752 127.653748 104.66406 C 127.181031 104.110537 126.869927 103.451966 126.720435 102.696427 C 126.583064 101.940888 126.482056 101.217672 126.417411 100.530818 C 126.082065 96.462222 125.88005 92.470391 125.811364 88.555327 C 125.593187 84.62006 125.484099 80.664593 125.484099 76.680843 L 125.484099 72.850625 C 125.148753 72.850625 124.801286 72.850625 124.449778 72.850625 C 124.114432 72.850625 123.779086 72.850625 123.44374 72.850625 C 119.443829 72.850625 115.47624 72.951633 111.540974 73.149608 C 111.625821 74.664726 111.686425 76.159642 111.718748 77.638397 C 111.75107 79.117152 111.771272 80.620149 111.771272 82.151428 C 111.771272 83.864522 111.771272 85.589736 111.771272 87.31899 C 111.771272 89.032084 111.593498 90.712854 111.241991 92.361303 L 111.241991 92.664326 C 111.173305 93.084519 111.140983 93.520873 111.140983 93.973388 C 111.140983 94.413782 111.10462 94.842056 111.039975 95.262248 C 110.97129 96.151118 110.809677 97.116753 110.559178 98.159154 C 110.324839 99.185394 109.896566 100.04194 109.274358 100.732834 C 107.981457 102.041896 106.502702 102.73279 104.838092 102.797435 C 103.189644 102.86612 101.888663 102.001493 100.931108 100.203553 C 100.777577 99.932852 100.652327 99.682352 100.551319 99.443974 C 100.450311 99.193474 100.333142 98.930854 100.199812 98.664193 C 99.929111 98.664193 99.634168 98.563185 99.314983 98.36117 C 99.011959 98.142993 98.862468 97.864211 98.862468 97.528865 C 98.575605 93.682486 98.365509 89.832066 98.232178 85.981646 C 98.098848 82.119106 97.961477 78.292928 97.828147 74.511194 L 96.793827 74.915225 C 95.618095 75.404103 94.511049 75.351579 93.468648 74.765734 C 92.442408 74.175848 91.751514 73.30314 91.400007 72.14357 C 91.064661 70.967838 91.30708 69.824429 92.131304 68.713343 C 92.551497 68.15982 93.10502 67.569934 93.795913 66.951766 C 94.216106 66.277033 94.745387 65.731591 95.383757 65.311398 C 96.038288 64.891205 96.745343 64.547779 97.500882 64.277078 C 97.432196 62.208437 97.383712 60.127675 97.35139 58.026711 C 97.315027 55.925748 97.230181 53.808623 97.09685 51.671297 C 97.032205 49.26731 96.947359 46.831 96.846351 44.362368 C 96.745343 41.873535 96.729182 39.429144 96.793827 37.025157 C 96.793827 36.875666 96.846351 36.7989 96.947359 36.7989 C 97.048366 36.7989 97.09685 36.875666 97.09685 37.025157 C 97.650373 39.49783 98.030163 42.006865 98.232178 44.564384 C 98.434194 47.101701 98.676613 49.647099 98.963475 52.200578 C 99.165491 54.119727 99.367507 56.059078 99.569523 58.026711 C 99.7877 59.990304 99.961433 61.941776 100.098804 63.873046 C 100.300819 63.654869 100.401827 63.545781 100.401827 63.545781 L 100.599803 63.545781 C 100.535158 59.562031 100.43415 55.578281 100.300819 51.598571 C 100.163449 47.59866 99.820022 43.631071 99.266499 39.695805 C 99.129128 38.536235 99.440232 37.477673 100.199812 36.520118 C 100.95535 35.546402 101.888663 34.992879 102.995709 34.855509 C 104.090634 34.706017 105.149197 34.992879 106.171396 35.716096 C 107.213797 36.439312 107.771361 37.388786 107.836006 38.564517 L 107.836006 38.766533 C 108.191553 38.766533 108.567303 38.875621 108.971334 39.093798 C 109.524857 39.295814 109.904647 39.772571 110.106662 40.52811 C 110.308678 41.287689 110.450089 41.905857 110.534936 42.394735 L 110.837959 47.33604 C 110.97129 49.687503 111.120781 52.051086 111.290474 54.418711 C 111.460168 56.790375 111.61774 59.141838 111.771272 61.48118 L 111.973288 61.48118 C 113.751026 61.210479 115.553006 60.992302 117.367107 60.822609 C 119.19737 60.656956 121.011471 60.495343 122.813451 60.345852 C 123.366974 60.277166 123.912416 60.208481 124.449778 60.143836 C 125.003301 60.075151 125.560865 60.010506 126.114388 59.94182 C 126.045702 57.808534 125.944695 55.671208 125.811364 53.537922 C 125.678034 51.404636 125.532583 49.26731 125.383091 47.134024 C 125.11239 45.352245 124.995221 43.513902 125.031584 41.614954 C 125.063906 39.716007 125.936614 38.184728 127.653748 37.025157 C 129.249672 35.982756 130.970846 35.538322 132.82131 35.687813 C 134.683895 35.825184 136.130327 36.782739 137.156567 38.564517 C 138.130283 40.14428 138.651483 41.982623 138.720169 44.083587 C 138.784814 46.18455 138.853499 48.136022 138.922184 49.933962 C 138.986829 50.067292 139.002991 50.216784 138.970668 50.386477 C 138.938346 50.55617 138.922184 50.713742 138.922184 50.867274 C 139.055515 53.267221 139.055515 55.707571 138.922184 58.176203 L 138.922184 60.44686 C 139.342377 60.527666 139.754489 60.620593 140.15448 60.721601 C 140.574673 60.822609 141.023148 60.939778 141.491824 61.077149 C 142.869571 61.497341 143.835207 62.293283 144.39277 63.469015 C 144.946293 64.628585 145.132147 65.864921 144.946293 67.178023 C 144.7766 68.487085 144.247319 69.622414 143.358449 70.579968 Z M 115.274224 70.050687 C 114.720701 70.050687 114.146977 70.066848 113.561131 70.099171 C 112.987406 70.135533 112.425803 70.151695 111.87228 70.151695 C 111.734909 70.438557 111.593498 70.612291 111.439966 70.680976 L 111.439966 71.085007 C 115.508563 70.680976 119.508474 70.47896 123.44374 70.47896 C 123.779086 70.547646 124.130593 70.579968 124.502302 70.579968 C 124.886132 70.579968 125.213398 70.579968 125.484099 70.579968 L 125.484099 70.050687 C 123.771005 69.982002 122.061953 69.933518 120.36502 69.901195 C 118.68425 69.864832 116.987318 69.917356 115.274224 70.050687 Z M 178.666757 99.900529 C 178.262725 99.763159 177.798089 99.043983 177.276888 97.73088 C 176.755688 96.421819 176.202165 94.805693 175.616319 92.890584 C 175.026433 90.959314 174.47291 88.959358 173.95171 86.890717 C 173.44667 84.822076 172.986075 82.967572 172.565882 81.319124 C 172.16185 79.670675 171.891149 78.462621 171.757819 77.690921 L 163.689311 77.816171 C 162.933773 80.907012 162.279242 83.981691 161.725719 87.040209 C 161.184316 90.102767 160.776245 93.217849 160.489382 96.393536 C 160.489382 97.015745 160.194439 97.326849 159.604553 97.326849 C 159.034869 97.326849 158.78437 97.015745 158.849015 96.393536 C 159.119716 93.302696 159.515667 90.191654 160.032827 87.068491 C 160.554027 83.925126 161.293405 80.842367 162.255 77.816171 L 161.321687 77.816171 C 160.986341 79.040386 160.638874 80.539343 160.287367 82.30092 C 159.952021 84.050376 159.624755 85.77155 159.30557 87.472522 C 159.002547 89.153293 158.739926 90.563363 158.521749 91.706772 C 158.319734 92.829979 158.218726 93.395623 158.218726 93.395623 L 157.612679 98.033904 C 157.394502 100.385367 156.59856 102.074218 155.220812 103.100458 C 153.843065 104.142859 152.327947 104.554971 150.683539 104.336794 C 149.035091 104.134779 147.641183 103.342877 146.497774 101.96513 C 145.370526 100.587383 144.974575 98.696516 145.313962 96.292529 C 145.734154 93.270373 146.210911 90.244178 146.748273 87.217983 C 147.301796 84.175626 147.960368 81.177713 148.715906 78.220202 C 148.24319 78.284848 147.766432 78.337372 147.277554 78.369694 C 146.792717 78.402017 146.344242 78.422218 145.944251 78.422218 C 146.077581 78.082832 146.109904 77.771728 146.045259 77.488906 C 144.380649 77.084874 143.168555 76.191965 142.413016 74.814217 C 141.657477 73.43647 141.447381 71.909231 141.782727 70.228461 C 142.134234 68.531529 143.10391 66.976008 144.683673 65.561898 C 146.279597 64.151828 148.622979 63.210435 151.71382 62.737718 C 152.473399 59.29537 153.293582 55.897466 154.186492 52.556126 C 155.095563 49.210745 156.194528 45.958292 157.487429 42.798767 C 158.109637 41.421019 158.800531 39.926103 159.55607 38.309977 C 160.311608 36.697892 161.261082 35.287822 162.404491 34.075728 C 163.5479 32.867674 164.974131 32.261627 166.691265 32.261627 C 167.580134 32.192941 168.473043 32.43536 169.361913 32.992924 C 170.270983 33.546447 170.925514 34.23734 171.329546 35.057524 C 172.840623 35.12621 174.093121 35.663571 175.087038 36.67365 C 176.093076 37.663527 176.666801 38.98471 176.800131 40.629118 C 176.949623 42.697759 177.127397 44.782561 177.329413 46.883524 C 177.531428 48.984488 177.733444 51.032927 177.93546 53.032883 C 178.016266 53.101568 178.093032 53.133891 178.161717 53.133891 C 178.226362 51.335951 178.311209 49.562253 178.412217 47.816837 C 178.513225 46.05122 178.666757 44.309844 178.864732 42.596751 C 178.864732 42.309889 178.917256 42.932097 179.018264 44.463376 C 179.135433 45.974454 179.260683 47.917845 179.398053 50.285469 C 179.531384 52.657134 179.664714 55.032838 179.798045 57.420664 C 179.935415 59.788288 180.109149 61.764002 180.327326 63.343765 C 182.31112 63.545781 183.858561 64.220513 184.965607 65.359882 C 186.076693 66.503291 186.767587 67.816393 187.034248 69.295148 C 187.304949 70.773903 187.159497 72.236497 186.605974 73.678889 C 186.068612 75.125322 185.074695 76.292973 183.632303 77.185882 C 184.319156 80.212077 185.042373 83.638264 185.797911 87.472522 C 186.557491 91.286579 187.135255 94.741048 187.539287 97.831888 C 187.826149 100.16719 187.640295 101.940888 186.985764 103.152982 C 186.327193 104.361036 185.462565 105.031729 184.387842 105.169099 C 183.329279 105.30243 182.262636 104.92264 181.187913 104.033771 C 180.12531 103.140861 179.284925 101.763114 178.666757 99.900529 Z M 163.386288 64.378086 C 164.145867 64.244755 165.119583 64.159909 166.311475 64.127586 C 167.52357 64.091223 168.473043 64.042739 169.159897 63.974054 C 169.026567 63.069024 168.877075 61.788244 168.707382 60.143836 C 168.537689 58.495388 168.327592 56.72977 168.077093 54.846984 C 167.842754 52.948036 167.547811 51.20262 167.196304 49.606696 C 166.37208 52.495521 165.648864 55.085363 165.026655 57.36814 C 164.420608 59.638797 163.875166 61.974098 163.386288 64.378086 Z M 186.29487 43.429056 C 186.092854 42.738162 186.16154 42.051308 186.496886 41.360415 C 186.852433 40.673561 187.19586 40.083675 187.531206 39.598838 C 188.2221 38.572598 189.086727 37.716051 190.129128 37.025157 C 190.395789 36.738295 190.597805 36.564562 190.731135 36.495876 C 192.112923 35.538322 193.571476 34.815105 195.118917 34.326227 C 196.682518 33.84139 198.254201 33.809067 199.833963 34.22522 C 201.211711 34.580767 202.411684 35.150452 203.437924 35.942353 C 204.480325 36.730214 205.235864 37.817059 205.708581 39.194806 C 205.926758 39.732168 205.894435 40.245288 205.607573 40.730126 C 205.336872 41.219004 204.993445 41.631116 204.573252 41.966462 C 202.860159 43.210879 201.033937 44.043183 199.102667 44.463376 C 198.480458 45.15023 197.656234 45.647188 196.634035 45.950212 C 195.607795 46.253235 194.605797 46.402727 193.632081 46.402727 C 192.807857 46.402727 191.999794 46.338082 191.211933 46.200711 C 190.420031 46.067381 189.648331 45.865365 188.892792 45.598704 C 188.403914 45.445172 187.882714 45.166391 187.329191 44.7664 C 186.791829 44.346207 186.448402 43.897732 186.29487 43.429056 Z M 193.22805 45.897688 C 194.743167 45.897688 195.733044 45.748196 196.201721 45.445172 C 196.690599 45.125988 196.900695 44.968415 196.83201 44.968415 C 196.213842 45.101746 195.522948 45.202754 194.767409 45.267399 C 194.01187 45.336084 193.050276 45.267399 191.890705 45.069423 C 190.363467 44.730037 189.337227 44.051264 188.816026 43.025024 C 188.310987 41.982623 188.302906 40.875577 188.791784 39.695805 C 188.302906 40.253369 187.850391 40.907899 187.430198 41.663438 C 187.228183 42.152316 187.127175 42.58867 187.127175 42.97654 C 187.127175 43.344209 187.337271 43.699757 187.757464 44.035103 C 188.448358 44.588626 189.102889 44.968415 189.725097 45.166391 C 190.751337 45.521938 191.918988 45.764357 193.22805 45.897688 Z M 203.967205 97.528865 C 203.482367 98.353089 202.759151 98.942975 201.801597 99.294482 C 201.866242 99.629828 201.825838 99.993457 201.672307 100.377286 C 201.538976 100.748995 201.235953 101.031817 200.767276 101.233833 C 199.522859 101.856041 198.193596 102.033815 196.783526 101.763114 C 195.373456 101.480292 194.185604 100.858084 193.22805 99.900529 L 193.026034 99.597506 C 192.541196 99.39549 192.019996 99.084386 191.462432 98.664193 C 190.371547 97.637953 189.700855 96.401617 189.446315 94.959225 C 189.211977 93.496631 188.9938 92.042118 188.791784 90.595685 C 188.302906 86.749306 187.935238 82.915048 187.680698 79.100991 C 187.44636 75.270773 187.361513 71.428434 187.430198 67.578014 C 187.430198 65.71543 187.430198 63.840724 187.430198 61.957937 C 187.430198 60.058989 187.539287 58.184284 187.757464 56.33786 C 187.890794 55.360104 188.129173 54.41063 188.464519 53.489438 C 188.816026 52.564206 189.304904 51.788466 189.927113 51.170298 C 190.060443 50.968282 190.193773 50.782428 190.331144 50.612735 C 190.464474 50.42688 190.597805 50.269308 190.731135 50.135977 C 191.506876 49.647099 192.488672 49.041052 193.680565 48.317836 C 194.892659 47.59866 196.076471 47.186548 197.236041 47.08554 C 198.411773 46.984532 199.28044 47.622902 199.833963 49.000649 C 200.16931 48.931964 200.504656 49.000649 200.844042 49.202665 C 201.195549 49.404681 201.405646 49.748107 201.474331 50.236985 C 201.474331 52.168256 201.437968 54.067203 201.373323 55.933829 C 201.304638 57.780252 201.272315 59.671119 201.272315 61.60643 C 201.272315 63.452854 201.304638 65.327559 201.373323 67.226507 C 201.437968 69.109294 201.514734 71.016322 201.599581 72.951633 C 201.599581 73.30314 201.615742 73.707171 201.648065 74.159687 C 201.684427 74.596041 201.732911 75.048556 201.801597 75.521273 C 201.866242 75.452587 201.951088 75.731369 202.052096 76.353577 C 202.153104 76.975786 202.237951 77.581833 202.302596 78.167678 C 202.371281 78.757564 202.439966 79.052507 202.504611 79.052507 C 202.439966 76.563674 202.387442 73.808179 202.35512 70.781984 C 202.322797 67.755788 202.322797 64.729593 202.35512 61.707438 C 202.387442 58.665081 202.480369 55.941909 202.633901 53.537922 C 202.633901 53.404592 202.75107 53.319745 202.985409 53.287423 C 203.219747 53.25106 203.336916 53.267221 203.336916 53.335906 C 203.1349 60.697359 203.235908 68.050731 203.63994 75.396023 C 204.060132 82.721113 204.751026 90.066404 205.708581 97.427857 C 205.773226 97.900574 205.530807 98.159154 204.977284 98.211678 C 204.439922 98.244 204.104576 98.017743 203.967205 97.528865 Z M 192.496753 55.404547 C 191.741214 57.739849 191.312941 60.2004 191.211933 62.790242 C 191.110925 65.359882 190.993756 67.856796 190.860425 70.276944 L 190.860425 71.311265 C 190.860425 71.37995 190.860425 71.412273 190.860425 71.412273 C 190.860425 71.412273 190.860425 71.444595 190.860425 71.513281 C 190.993756 72.741536 191.127086 73.973832 191.260416 75.218249 C 191.397787 76.462666 191.531117 77.707083 191.664448 78.951499 L 191.991713 78.951499 C 191.991713 76.595996 191.975552 74.268775 191.94323 71.965796 C 191.910907 69.662817 191.927068 67.343676 191.991713 65.008375 C 191.991713 63.210435 192.07656 61.404414 192.246253 59.590313 C 192.411906 57.75601 192.775534 56.018675 193.329057 54.370227 L 193.22805 54.370227 C 192.743212 54.705573 192.496753 55.049 192.496753 55.404547 Z M 246.822819 103.302474 C 246.200611 103.722667 245.509717 103.722667 244.754178 103.302474 C 243.376431 102.680266 242.443119 101.662106 241.954241 100.252037 C 241.469403 98.841967 241.089613 97.488462 240.822953 96.191521 L 240.216905 92.664326 L 222.241547 60.572109 C 221.954685 60.220602 221.679943 59.840813 221.409242 59.436781 C 221.138541 59.016588 220.8638 58.628718 220.576937 58.277211 C 220.645623 61.788244 220.661784 65.303318 220.629461 68.814351 C 220.593099 72.329424 220.576937 75.840457 220.576937 79.351491 C 220.710268 81.420131 220.795114 83.488772 220.831477 85.553373 C 220.879961 87.622014 220.940566 89.690655 221.005211 91.755256 C 221.073896 92.781495 221.138541 94.033993 221.207226 95.512748 C 221.275912 96.991503 221.114299 98.320766 220.730469 99.496498 C 220.35876 100.656068 219.44969 101.342922 218.007297 101.561098 C 217.385089 102.587338 216.536623 103.286313 215.457859 103.653981 C 214.399297 104.041852 213.28417 104.066093 212.108438 103.730747 C 211.013513 103.443885 210.055959 102.789354 209.231735 101.763114 C 208.948913 97.427857 208.718615 93.0926 208.552962 88.757342 C 208.383269 84.422085 208.233777 80.082787 208.100447 75.74753 C 207.946915 72.236497 207.837826 68.705262 207.769141 65.157866 C 207.704496 61.614511 207.603488 58.083276 207.470158 54.572243 C 207.401472 52.301586 207.348948 50.03497 207.316626 47.764313 C 207.284303 45.477495 207.332787 43.235121 207.470158 41.033149 C 208.157011 40.495787 208.811542 40.192764 209.43375 40.128119 C 209.43375 39.287733 209.712532 38.487751 210.266055 37.732212 C 211.090279 36.705973 212.015511 36.209014 213.037711 36.245377 C 214.080112 36.277699 215.150795 36.657489 216.24168 37.376665 C 217.348726 38.099881 218.350724 38.932186 219.239593 39.873579 C 220.132503 40.798811 220.819356 41.56243 221.308234 42.168478 C 223.090013 44.51994 224.7223 46.923928 226.201055 49.376398 C 227.695971 51.816748 229.122202 54.301542 230.483788 56.838859 C 231.65952 58.838815 232.794848 60.875133 233.889773 62.939734 C 234.996819 65.008375 236.071543 67.109338 237.113944 69.242624 C 237.251315 69.513325 237.31596 69.856752 237.31596 70.276944 L 238.956327 73.480914 C 238.685626 70.85875 238.309877 68.200223 237.820999 65.513414 C 237.352323 62.822564 236.871525 60.176159 236.382647 57.570156 C 236.03114 55.707571 235.687713 53.849026 235.352367 51.998562 C 235.012981 50.135977 234.568546 48.269352 234.015023 46.402727 C 233.728161 45.445172 233.46958 44.471457 233.231202 43.477539 C 232.996864 42.471501 233.150396 41.453342 233.687757 40.427102 C 234.172595 39.606918 234.762481 38.98471 235.449334 38.564517 C 235.449334 38.495832 235.469536 38.463509 235.501859 38.463509 C 235.534181 38.463509 235.550342 38.427146 235.550342 38.362501 C 236.172551 37.18677 237.122025 36.596884 238.402804 36.596884 C 239.679544 36.596884 240.762348 36.907988 241.651217 37.530197 C 241.853233 37.598882 242.099692 37.772616 242.382514 38.059478 C 242.58453 39.017032 242.822908 39.998829 243.089569 41.008907 C 243.376431 41.998784 243.651173 42.97654 243.921874 43.934095 C 244.746098 46.891605 245.432951 49.942042 245.990515 53.085407 C 246.544038 56.20857 247.057158 59.319612 247.525834 62.410452 C 248.568235 68.68102 249.40054 75.016233 250.022748 81.420131 C 250.644957 87.82403 251.158077 94.191565 251.562108 100.530818 C 251.004545 101.286357 250.317691 101.940888 249.493467 102.494411 C 248.669243 103.031773 247.780374 103.302474 246.822819 103.302474 Z M 252.592388 99.496498 C 252.459058 99.496498 252.325728 99.597506 252.192397 99.799521 C 251.501503 89.949235 250.55203 80.127231 249.343976 70.329469 C 248.131881 60.511505 246.459191 50.822831 244.325905 41.259407 C 244.192575 40.839214 244.301663 40.463465 244.653171 40.128119 C 244.923872 39.772571 245.29154 39.614999 245.760217 39.647321 C 246.249095 39.679644 246.527876 39.974587 246.592521 40.52811 C 248.459147 49.469326 249.92174 58.503468 250.980303 67.630539 C 252.055026 76.757609 252.560066 85.90084 252.49138 95.060233 C 252.560066 95.395579 252.61259 96.033948 252.644912 96.975342 C 252.677235 97.900574 252.661074 98.740959 252.592388 99.496498 Z M 207.36915 91.957271 C 207.098449 88.312908 206.888352 84.510972 206.738861 80.563585 C 206.60149 76.595996 206.46816 72.749617 206.334829 69.016366 C 206.197459 65.367963 206.100491 61.691276 206.031806 57.974187 C 205.96312 54.261138 205.898475 50.548089 205.82979 46.831 C 205.744943 45.942131 205.769185 45.03306 205.906556 44.107828 C 206.056048 43.166435 206.298466 42.285647 206.637853 41.461423 C 206.569167 43.109871 206.553006 44.7664 206.585329 46.426969 C 206.617651 48.075417 206.670175 49.723865 206.738861 51.368273 C 206.819667 54.947992 206.912594 58.52771 207.013602 62.107429 C 207.11461 65.691188 207.199457 69.303229 207.268142 72.951633 L 208.197414 96.191521 C 208.197414 96.191521 208.108527 96.042029 207.922673 95.739006 C 207.75298 95.419821 207.567125 94.159243 207.36915 91.957271 Z M 218.94061 86.890717 L 218.609304 87.193741 C 218.609304 87.193741 218.593143 87.193741 218.56082 87.193741 C 218.528498 87.193741 218.475974 87.226063 218.411329 87.294749 L 218.310321 93.496631 C 218.310321 94.320855 218.459813 95.302652 218.762836 96.446061 C 219.082021 97.573308 219.07394 98.789443 218.738594 100.102545 C 219.425448 98.942975 219.696149 97.771284 219.542617 96.595552 C 219.477972 95.637998 219.425448 94.648121 219.393125 93.621881 C 219.360803 92.57948 219.275956 91.537079 219.138585 90.494677 C 219.138585 89.892671 219.122424 89.294704 219.090102 88.704818 C 219.057779 88.118973 219.005255 87.512925 218.94061 86.890717 Z M 218.94061 86.890717 " stroke="#100a09" stroke-width="8.26144" stroke-opacity="1" stroke-miterlimit="4"/><g fill="#ff66c4" fill-opacity="1"><g transform="translate(79.444537, 196.340375)"><g><path d="M 48.125 -37.828125 C 49.78125 -35.304688 50.554688 -32.347656 50.453125 -28.953125 C 50.359375 -25.554688 49.945312 -22.460938 49.21875 -19.671875 C 48.550781 -17.140625 47.582031 -14.640625 46.3125 -12.171875 C 45.050781 -9.710938 43.359375 -7.648438 41.234375 -5.984375 C 37.835938 -3.253906 33.859375 -1.441406 29.296875 -0.546875 C 24.742188 0.347656 20.367188 -0.0351562 16.171875 -1.703125 C 12.109375 -3.359375 8.5625 -5.898438 5.53125 -9.328125 C 2.507812 -12.753906 0.53125 -16.664062 -0.40625 -21.0625 C -0.601562 -22.125 -0.765625 -23.203125 -0.890625 -24.296875 C -1.023438 -25.398438 -1.09375 -26.484375 -1.09375 -27.546875 C -1.03125 -31.210938 -0.566406 -34.789062 0.296875 -38.28125 C 1.160156 -41.78125 2.722656 -44.957031 4.984375 -47.8125 C 6.515625 -49.8125 8.296875 -51.84375 10.328125 -53.90625 C 12.359375 -55.96875 14.40625 -57.734375 16.46875 -59.203125 C 18.394531 -60.597656 20.394531 -61.894531 22.46875 -63.09375 C 23.457031 -63.6875 24.550781 -64.148438 25.75 -64.484375 C 26.945312 -64.816406 28.144531 -64.914062 29.34375 -64.78125 C 30.414062 -64.71875 31.25 -64.351562 31.84375 -63.6875 C 32.445312 -63.019531 32.75 -62.253906 32.75 -61.390625 C 33.082031 -60.796875 33.25 -60.179688 33.25 -59.546875 C 33.25 -58.910156 33.210938 -58.226562 33.140625 -57.5 C 33.078125 -57.101562 33.046875 -56.269531 33.046875 -55 C 33.046875 -53.738281 33.046875 -52.304688 33.046875 -50.703125 C 33.046875 -49.109375 33.0625 -47.597656 33.09375 -46.171875 C 33.125 -44.742188 33.140625 -43.628906 33.140625 -42.828125 L 33.4375 -33.34375 C 33.4375 -32.476562 33.453125 -31.628906 33.484375 -30.796875 C 33.523438 -29.960938 33.578125 -29.144531 33.640625 -28.34375 C 33.640625 -27.6875 33.65625 -27.003906 33.6875 -26.296875 C 33.71875 -25.597656 33.671875 -24.921875 33.546875 -24.265625 C 33.472656 -23.992188 33.285156 -23.789062 32.984375 -23.65625 C 32.691406 -23.519531 32.410156 -23.519531 32.140625 -23.65625 C 31.804688 -23.925781 31.609375 -24.09375 31.546875 -24.15625 C 31.410156 -24.09375 31.273438 -24.078125 31.140625 -24.109375 C 31.015625 -24.140625 30.882812 -24.15625 30.75 -24.15625 C 30.082031 -24.351562 29.53125 -24.6875 29.09375 -25.15625 C 28.664062 -25.625 28.285156 -26.15625 27.953125 -26.75 C 27.753906 -27.082031 27.601562 -27.414062 27.5 -27.75 C 27.40625 -28.082031 27.289062 -28.382812 27.15625 -28.65625 L 26.859375 -28.65625 L 26.859375 -28.34375 C 27.191406 -27.21875 27.722656 -26.035156 28.453125 -24.796875 C 29.179688 -23.566406 30.28125 -23.085938 31.75 -23.359375 C 32.476562 -23.492188 32.988281 -23.328125 33.28125 -22.859375 C 33.582031 -22.390625 33.648438 -21.890625 33.484375 -21.359375 C 33.328125 -20.828125 32.878906 -20.53125 32.140625 -20.46875 C 30.878906 -20.332031 29.628906 -20.628906 28.390625 -21.359375 C 27.160156 -22.097656 26.28125 -23.066406 25.75 -24.265625 C 25.082031 -25.785156 24.695312 -27.363281 24.59375 -29 C 24.5 -30.632812 24.421875 -32.25 24.359375 -33.84375 L 23.765625 -53.109375 C 23.554688 -52.972656 23.351562 -52.820312 23.15625 -52.65625 C 22.957031 -52.488281 22.726562 -52.335938 22.46875 -52.203125 C 19.070312 -49.609375 16.40625 -46.613281 14.46875 -43.21875 C 12.539062 -39.832031 11.175781 -36.007812 10.375 -31.75 C 10.3125 -31.34375 10.265625 -31.085938 10.234375 -30.984375 C 10.203125 -30.890625 10.1875 -30.675781 10.1875 -30.34375 C 10.113281 -30.082031 10.078125 -29.816406 10.078125 -29.546875 C 10.078125 -29.285156 10.078125 -29.019531 10.078125 -28.75 C 10.015625 -27.550781 10.082031 -26.382812 10.28125 -25.25 C 10.476562 -24.125 10.742188 -22.992188 11.078125 -21.859375 C 12.015625 -18.929688 13.410156 -16.269531 15.265625 -13.875 C 17.128906 -11.476562 19.691406 -10.179688 22.953125 -9.984375 C 23.160156 -9.984375 23.378906 -9.96875 23.609375 -9.9375 C 23.835938 -9.90625 24.054688 -9.890625 24.265625 -9.890625 C 28.117188 -10.015625 31.410156 -11.273438 34.140625 -13.671875 C 35.273438 -14.742188 36.140625 -15.84375 36.734375 -16.96875 C 37.671875 -18.5625 38.269531 -20.273438 38.53125 -22.109375 C 38.800781 -23.941406 38.898438 -25.722656 38.828125 -27.453125 C 38.765625 -28.253906 38.695312 -29.035156 38.625 -29.796875 C 38.5625 -30.566406 38.363281 -31.28125 38.03125 -31.9375 C 37.363281 -33.40625 37.179688 -34.890625 37.484375 -36.390625 C 37.785156 -37.890625 38.664062 -39.070312 40.125 -39.9375 C 41.53125 -40.800781 42.992188 -41 44.515625 -40.53125 C 46.046875 -40.0625 47.25 -39.160156 48.125 -37.828125 Z M 25.75 -54.5 C 25.289062 -54.101562 24.757812 -53.738281 24.15625 -53.40625 C 24.289062 -51.738281 24.457031 -50.070312 24.65625 -48.40625 C 24.851562 -46.75 25.019531 -45.085938 25.15625 -43.421875 L 25.65625 -43.421875 C 25.59375 -45.285156 25.5625 -47.132812 25.5625 -48.96875 C 25.5625 -50.800781 25.625 -52.644531 25.75 -54.5 Z M 37.9375 -32.140625 C 37.9375 -32.210938 37.914062 -32.25 37.875 -32.25 C 37.84375 -32.25 37.828125 -32.28125 37.828125 -32.34375 C 37.828125 -32.34375 37.84375 -32.328125 37.875 -32.296875 C 37.914062 -32.265625 37.9375 -32.210938 37.9375 -32.140625 Z M 38.03125 -31.9375 C 37.96875 -32.007812 37.9375 -32.078125 37.9375 -32.140625 C 37.9375 -32.078125 37.953125 -32.046875 37.984375 -32.046875 C 38.015625 -32.046875 38.03125 -32.007812 38.03125 -31.9375 Z M 38.03125 -31.9375 "/></g></g></g><g fill="#ff66c4" fill-opacity="1"><g transform="translate(127.05985, 196.340375)"><g><path d="M 51.015625 -31.34375 L 51.015625 -31.046875 C 50.878906 -29.847656 50.328125 -28.929688 49.359375 -28.296875 C 48.398438 -27.671875 47.351562 -27.421875 46.21875 -27.546875 C 46.15625 -25.085938 46.039062 -22.625 45.875 -20.15625 C 45.707031 -17.695312 45.554688 -15.238281 45.421875 -12.78125 C 45.359375 -11.507812 45.257812 -10.273438 45.125 -9.078125 C 44.988281 -7.878906 44.851562 -6.679688 44.71875 -5.484375 C 44.582031 -4.421875 44.347656 -3.171875 44.015625 -1.734375 C 43.691406 -0.304688 42.992188 0.703125 41.921875 1.296875 C 41.921875 1.359375 41.890625 1.390625 41.828125 1.390625 C 41.554688 1.796875 41.125 2.164062 40.53125 2.5 C 39.664062 3.03125 38.800781 3.175781 37.9375 2.9375 C 37.070312 2.707031 36.375 2.257812 35.84375 1.59375 C 35.375 1.0625 35.070312 0.429688 34.9375 -0.296875 C 34.800781 -1.023438 34.703125 -1.722656 34.640625 -2.390625 C 34.304688 -6.316406 34.109375 -10.175781 34.046875 -13.96875 C 33.835938 -17.769531 33.734375 -21.597656 33.734375 -25.453125 L 33.734375 -29.15625 C 33.410156 -29.15625 33.082031 -29.15625 32.75 -29.15625 C 32.414062 -29.15625 32.082031 -29.15625 31.75 -29.15625 C 27.882812 -29.15625 24.054688 -29.050781 20.265625 -28.84375 C 20.328125 -27.382812 20.375 -25.9375 20.40625 -24.5 C 20.445312 -23.070312 20.46875 -21.628906 20.46875 -20.171875 C 20.46875 -18.503906 20.46875 -16.835938 20.46875 -15.171875 C 20.46875 -13.503906 20.300781 -11.875 19.96875 -10.28125 L 19.96875 -9.984375 C 19.894531 -9.585938 19.859375 -9.171875 19.859375 -8.734375 C 19.859375 -8.304688 19.828125 -7.890625 19.765625 -7.484375 C 19.703125 -6.617188 19.550781 -5.6875 19.3125 -4.6875 C 19.082031 -3.6875 18.664062 -2.859375 18.0625 -2.203125 C 16.800781 -0.929688 15.367188 -0.257812 13.765625 -0.1875 C 12.171875 -0.125 10.910156 -0.960938 9.984375 -2.703125 C 9.847656 -2.960938 9.726562 -3.207031 9.625 -3.4375 C 9.53125 -3.675781 9.414062 -3.925781 9.28125 -4.1875 C 9.019531 -4.1875 8.738281 -4.285156 8.4375 -4.484375 C 8.132812 -4.691406 7.984375 -4.960938 7.984375 -5.296875 C 7.722656 -9.015625 7.523438 -12.738281 7.390625 -16.46875 C 7.253906 -20.195312 7.117188 -23.890625 6.984375 -27.546875 L 5.984375 -27.15625 C 4.859375 -26.6875 3.796875 -26.734375 2.796875 -27.296875 C 1.796875 -27.867188 1.128906 -28.71875 0.796875 -29.84375 C 0.460938 -30.976562 0.695312 -32.078125 1.5 -33.140625 C 1.894531 -33.671875 2.425781 -34.238281 3.09375 -34.84375 C 3.488281 -35.507812 4.003906 -36.039062 4.640625 -36.4375 C 5.273438 -36.832031 5.957031 -37.164062 6.6875 -37.4375 C 6.625 -39.4375 6.570312 -41.445312 6.53125 -43.46875 C 6.5 -45.5 6.421875 -47.546875 6.296875 -49.609375 C 6.222656 -51.941406 6.132812 -54.304688 6.03125 -56.703125 C 5.9375 -59.097656 5.921875 -61.460938 5.984375 -63.796875 C 5.984375 -63.921875 6.035156 -63.984375 6.140625 -63.984375 C 6.242188 -63.984375 6.296875 -63.921875 6.296875 -63.796875 C 6.828125 -61.398438 7.191406 -58.96875 7.390625 -56.5 C 7.585938 -54.039062 7.820312 -51.578125 8.09375 -49.109375 C 8.289062 -47.242188 8.488281 -45.363281 8.6875 -43.46875 C 8.882812 -41.570312 9.050781 -39.691406 9.1875 -37.828125 C 9.382812 -38.035156 9.484375 -38.140625 9.484375 -38.140625 L 9.6875 -38.140625 C 9.613281 -41.992188 9.507812 -45.847656 9.375 -49.703125 C 9.25 -53.566406 8.921875 -57.394531 8.390625 -61.1875 C 8.253906 -62.320312 8.550781 -63.351562 9.28125 -64.28125 C 10.007812 -65.21875 10.910156 -65.753906 11.984375 -65.890625 C 13.046875 -66.023438 14.078125 -65.738281 15.078125 -65.03125 C 16.078125 -64.332031 16.609375 -63.421875 16.671875 -62.296875 L 16.671875 -62.09375 C 17.003906 -62.09375 17.367188 -61.992188 17.765625 -61.796875 C 18.296875 -61.597656 18.660156 -61.128906 18.859375 -60.390625 C 19.066406 -59.660156 19.203125 -59.0625 19.265625 -58.59375 L 19.5625 -53.8125 C 19.695312 -51.539062 19.847656 -49.257812 20.015625 -46.96875 C 20.179688 -44.675781 20.332031 -42.394531 20.46875 -40.125 L 20.671875 -40.125 C 22.398438 -40.394531 24.144531 -40.613281 25.90625 -40.78125 C 27.664062 -40.945312 29.410156 -41.097656 31.140625 -41.234375 C 31.671875 -41.296875 32.203125 -41.359375 32.734375 -41.421875 C 33.273438 -41.492188 33.8125 -41.5625 34.34375 -41.625 C 34.269531 -43.6875 34.164062 -45.75 34.03125 -47.8125 C 33.90625 -49.875 33.773438 -51.9375 33.640625 -54 C 33.378906 -55.738281 33.265625 -57.519531 33.296875 -59.34375 C 33.328125 -61.175781 34.175781 -62.660156 35.84375 -63.796875 C 37.375 -64.785156 39.035156 -65.210938 40.828125 -65.078125 C 42.628906 -64.953125 44.023438 -64.023438 45.015625 -62.296875 C 45.953125 -60.765625 46.453125 -58.984375 46.515625 -56.953125 C 46.585938 -54.921875 46.65625 -53.039062 46.71875 -51.3125 C 46.78125 -51.175781 46.796875 -51.023438 46.765625 -50.859375 C 46.734375 -50.691406 46.71875 -50.539062 46.71875 -50.40625 C 46.851562 -48.082031 46.851562 -45.722656 46.71875 -43.328125 L 46.71875 -41.125 C 47.113281 -41.0625 47.507812 -40.976562 47.90625 -40.875 C 48.3125 -40.78125 48.75 -40.664062 49.21875 -40.53125 C 50.550781 -40.132812 51.484375 -39.367188 52.015625 -38.234375 C 52.546875 -37.097656 52.726562 -35.898438 52.5625 -34.640625 C 52.394531 -33.378906 51.878906 -32.28125 51.015625 -31.34375 Z M 23.859375 -31.84375 C 23.328125 -31.84375 22.773438 -31.828125 22.203125 -31.796875 C 21.640625 -31.765625 21.09375 -31.75 20.5625 -31.75 C 20.425781 -31.476562 20.296875 -31.3125 20.171875 -31.25 L 20.171875 -30.84375 C 24.097656 -31.25 27.957031 -31.453125 31.75 -31.453125 C 32.082031 -31.378906 32.429688 -31.34375 32.796875 -31.34375 C 33.160156 -31.34375 33.472656 -31.34375 33.734375 -31.34375 L 33.734375 -31.84375 C 32.078125 -31.90625 30.429688 -31.953125 28.796875 -31.984375 C 27.171875 -32.023438 25.523438 -31.976562 23.859375 -31.84375 Z M 23.859375 -31.84375 "/></g></g></g><g fill="#ff66c4" fill-opacity="1"><g transform="translate(175.673403, 196.340375)"><g><path d="M 36.53125 -3 C 36.132812 -3.125 35.6875 -3.816406 35.1875 -5.078125 C 34.6875 -6.347656 34.15625 -7.914062 33.59375 -9.78125 C 33.03125 -11.644531 32.5 -13.570312 32 -15.5625 C 31.5 -17.5625 31.046875 -19.359375 30.640625 -20.953125 C 30.242188 -22.554688 29.976562 -23.722656 29.84375 -24.453125 L 22.0625 -24.359375 C 21.332031 -21.359375 20.695312 -18.378906 20.15625 -15.421875 C 19.625 -12.460938 19.226562 -9.453125 18.96875 -6.390625 C 18.96875 -5.785156 18.679688 -5.484375 18.109375 -5.484375 C 17.546875 -5.484375 17.300781 -5.785156 17.375 -6.390625 C 17.632812 -9.378906 18.015625 -12.390625 18.515625 -15.421875 C 19.015625 -18.453125 19.734375 -21.429688 20.671875 -24.359375 L 19.765625 -24.359375 C 19.429688 -23.160156 19.097656 -21.710938 18.765625 -20.015625 C 18.429688 -18.316406 18.113281 -16.648438 17.8125 -15.015625 C 17.519531 -13.390625 17.269531 -12.023438 17.0625 -10.921875 C 16.863281 -9.828125 16.765625 -9.28125 16.765625 -9.28125 L 16.171875 -4.796875 C 15.972656 -2.523438 15.207031 -0.894531 13.875 0.09375 C 12.539062 1.09375 11.078125 1.492188 9.484375 1.296875 C 7.890625 1.097656 6.539062 0.332031 5.4375 -1 C 4.34375 -2.332031 3.960938 -4.160156 4.296875 -6.484375 C 4.691406 -9.410156 5.15625 -12.335938 5.6875 -15.265625 C 6.21875 -18.203125 6.851562 -21.097656 7.59375 -23.953125 C 7.125 -23.890625 6.65625 -23.84375 6.1875 -23.8125 C 5.71875 -23.78125 5.285156 -23.765625 4.890625 -23.765625 C 5.023438 -24.097656 5.054688 -24.394531 4.984375 -24.65625 C 3.390625 -25.050781 2.226562 -25.914062 1.5 -27.25 C 0.769531 -28.582031 0.566406 -30.0625 0.890625 -31.6875 C 1.222656 -33.320312 2.15625 -34.820312 3.6875 -36.1875 C 5.21875 -37.550781 7.484375 -38.46875 10.484375 -38.9375 C 11.210938 -42.257812 12.007812 -45.535156 12.875 -48.765625 C 13.738281 -51.992188 14.804688 -55.140625 16.078125 -58.203125 C 16.671875 -59.535156 17.332031 -60.984375 18.0625 -62.546875 C 18.800781 -64.109375 19.71875 -65.46875 20.8125 -66.625 C 21.914062 -67.789062 23.296875 -68.375 24.953125 -68.375 C 25.816406 -68.445312 26.679688 -68.21875 27.546875 -67.6875 C 28.410156 -67.15625 29.046875 -66.488281 29.453125 -65.6875 C 30.910156 -65.625 32.125 -65.109375 33.09375 -64.140625 C 34.0625 -63.171875 34.609375 -61.890625 34.734375 -60.296875 C 34.867188 -58.296875 35.035156 -56.28125 35.234375 -54.25 C 35.429688 -52.226562 35.632812 -50.25 35.84375 -48.3125 C 35.90625 -48.25 35.96875 -48.21875 36.03125 -48.21875 C 36.101562 -49.945312 36.1875 -51.660156 36.28125 -53.359375 C 36.382812 -55.054688 36.535156 -56.738281 36.734375 -58.40625 C 36.734375 -58.664062 36.78125 -58.0625 36.875 -56.59375 C 36.976562 -55.132812 37.097656 -53.253906 37.234375 -50.953125 C 37.367188 -48.660156 37.5 -46.363281 37.625 -44.0625 C 37.757812 -41.769531 37.929688 -39.859375 38.140625 -38.328125 C 40.066406 -38.128906 41.5625 -37.476562 42.625 -36.375 C 43.6875 -35.28125 44.347656 -34.019531 44.609375 -32.59375 C 44.878906 -31.164062 44.75 -29.75 44.21875 -28.34375 C 43.6875 -26.945312 42.722656 -25.816406 41.328125 -24.953125 C 41.992188 -22.023438 42.691406 -18.710938 43.421875 -15.015625 C 44.148438 -11.328125 44.71875 -7.984375 45.125 -4.984375 C 45.382812 -2.722656 45.195312 -1.015625 44.5625 0.140625 C 43.9375 1.304688 43.109375 1.957031 42.078125 2.09375 C 41.046875 2.226562 40.015625 1.863281 38.984375 1 C 37.953125 0.132812 37.132812 -1.195312 36.53125 -3 Z M 21.765625 -37.328125 C 22.492188 -37.460938 23.441406 -37.546875 24.609375 -37.578125 C 25.773438 -37.617188 26.691406 -37.671875 27.359375 -37.734375 C 27.222656 -38.597656 27.070312 -39.828125 26.90625 -41.421875 C 26.738281 -43.023438 26.535156 -44.738281 26.296875 -46.5625 C 26.066406 -48.394531 25.785156 -50.078125 25.453125 -51.609375 C 24.660156 -48.816406 23.960938 -46.320312 23.359375 -44.125 C 22.765625 -41.925781 22.234375 -39.660156 21.765625 -37.328125 Z M 21.765625 -37.328125 "/></g></g></g><g fill="#ff66c4" fill-opacity="1"><g transform="translate(218.197677, 196.340375)"><g><path d="M 1.390625 -57.59375 C 1.191406 -58.257812 1.257812 -58.925781 1.59375 -59.59375 C 1.925781 -60.257812 2.257812 -60.828125 2.59375 -61.296875 C 3.257812 -62.296875 4.09375 -63.128906 5.09375 -63.796875 C 5.351562 -64.054688 5.550781 -64.222656 5.6875 -64.296875 C 7.019531 -65.222656 8.429688 -65.914062 9.921875 -66.375 C 11.421875 -66.84375 12.9375 -66.878906 14.46875 -66.484375 C 15.800781 -66.148438 16.96875 -65.597656 17.96875 -64.828125 C 18.96875 -64.066406 19.703125 -63.019531 20.171875 -61.6875 C 20.367188 -61.15625 20.332031 -60.65625 20.0625 -60.1875 C 19.800781 -59.726562 19.46875 -59.332031 19.0625 -59 C 17.40625 -57.800781 15.644531 -57.003906 13.78125 -56.609375 C 13.175781 -55.941406 12.375 -55.457031 11.375 -55.15625 C 10.382812 -54.851562 9.421875 -54.703125 8.484375 -54.703125 C 7.679688 -54.703125 6.894531 -54.769531 6.125 -54.90625 C 5.363281 -55.039062 4.617188 -55.238281 3.890625 -55.5 C 3.421875 -55.632812 2.921875 -55.898438 2.390625 -56.296875 C 1.859375 -56.703125 1.523438 -57.132812 1.390625 -57.59375 Z M 8.09375 -55.203125 C 9.550781 -55.203125 10.515625 -55.351562 10.984375 -55.65625 C 11.453125 -55.957031 11.648438 -56.109375 11.578125 -56.109375 C 10.984375 -55.972656 10.316406 -55.867188 9.578125 -55.796875 C 8.847656 -55.734375 7.914062 -55.800781 6.78125 -56 C 5.320312 -56.332031 4.34375 -57 3.84375 -58 C 3.34375 -59 3.328125 -60.0625 3.796875 -61.1875 C 3.328125 -60.65625 2.894531 -60.023438 2.5 -59.296875 C 2.300781 -58.828125 2.203125 -58.410156 2.203125 -58.046875 C 2.203125 -57.679688 2.398438 -57.332031 2.796875 -57 C 3.460938 -56.46875 4.09375 -56.101562 4.6875 -55.90625 C 5.6875 -55.570312 6.820312 -55.335938 8.09375 -55.203125 Z M 18.46875 -5.296875 C 18 -4.492188 17.300781 -3.925781 16.375 -3.59375 C 16.4375 -3.257812 16.398438 -2.910156 16.265625 -2.546875 C 16.140625 -2.179688 15.84375 -1.898438 15.375 -1.703125 C 14.175781 -1.097656 12.894531 -0.925781 11.53125 -1.1875 C 10.164062 -1.457031 9.019531 -2.0625 8.09375 -3 L 7.890625 -3.296875 C 7.421875 -3.492188 6.921875 -3.789062 6.390625 -4.1875 C 5.328125 -5.1875 4.675781 -6.382812 4.4375 -7.78125 C 4.207031 -9.1875 3.992188 -10.585938 3.796875 -11.984375 C 3.328125 -15.703125 2.972656 -19.410156 2.734375 -23.109375 C 2.503906 -26.804688 2.425781 -30.515625 2.5 -34.234375 C 2.5 -36.035156 2.5 -37.847656 2.5 -39.671875 C 2.5 -41.503906 2.597656 -43.320312 2.796875 -45.125 C 2.929688 -46.050781 3.164062 -46.960938 3.5 -47.859375 C 3.832031 -48.765625 4.296875 -49.515625 4.890625 -50.109375 C 5.023438 -50.304688 5.15625 -50.488281 5.28125 -50.65625 C 5.414062 -50.820312 5.550781 -50.972656 5.6875 -51.109375 C 6.414062 -51.578125 7.363281 -52.160156 8.53125 -52.859375 C 9.695312 -53.554688 10.84375 -53.953125 11.96875 -54.046875 C 13.101562 -54.148438 13.9375 -53.535156 14.46875 -52.203125 C 14.800781 -52.273438 15.132812 -52.210938 15.46875 -52.015625 C 15.800781 -51.816406 16.003906 -51.484375 16.078125 -51.015625 C 16.078125 -49.148438 16.039062 -47.316406 15.96875 -45.515625 C 15.90625 -43.722656 15.875 -41.894531 15.875 -40.03125 C 15.875 -38.226562 15.90625 -36.410156 15.96875 -34.578125 C 16.039062 -32.753906 16.109375 -30.910156 16.171875 -29.046875 C 16.171875 -28.710938 16.1875 -28.328125 16.21875 -27.890625 C 16.25 -27.460938 16.300781 -27.015625 16.375 -26.546875 C 16.4375 -26.617188 16.515625 -26.351562 16.609375 -25.75 C 16.710938 -25.15625 16.796875 -24.570312 16.859375 -24 C 16.929688 -23.4375 17.003906 -23.15625 17.078125 -23.15625 C 17.003906 -25.550781 16.953125 -28.210938 16.921875 -31.140625 C 16.890625 -34.066406 16.890625 -36.992188 16.921875 -39.921875 C 16.953125 -42.859375 17.035156 -45.488281 17.171875 -47.8125 C 17.171875 -47.945312 17.285156 -48.03125 17.515625 -48.0625 C 17.753906 -48.101562 17.875 -48.085938 17.875 -48.015625 C 17.664062 -40.890625 17.757812 -33.785156 18.15625 -26.703125 C 18.5625 -19.617188 19.234375 -12.515625 20.171875 -5.390625 C 20.234375 -4.921875 20 -4.671875 19.46875 -4.640625 C 18.9375 -4.609375 18.601562 -4.828125 18.46875 -5.296875 Z M 7.390625 -46.015625 C 6.660156 -43.753906 6.242188 -41.375 6.140625 -38.875 C 6.035156 -36.382812 5.921875 -33.972656 5.796875 -31.640625 L 5.796875 -30.640625 C 5.796875 -30.578125 5.796875 -30.546875 5.796875 -30.546875 C 5.796875 -30.546875 5.796875 -30.515625 5.796875 -30.453125 C 5.921875 -29.253906 6.050781 -28.054688 6.1875 -26.859375 C 6.320312 -25.660156 6.457031 -24.460938 6.59375 -23.265625 L 6.890625 -23.265625 C 6.890625 -25.523438 6.867188 -27.769531 6.828125 -30 C 6.796875 -32.226562 6.816406 -34.472656 6.890625 -36.734375 C 6.890625 -38.460938 6.972656 -40.207031 7.140625 -41.96875 C 7.304688 -43.738281 7.65625 -45.421875 8.1875 -47.015625 L 8.09375 -47.015625 C 7.625 -46.679688 7.390625 -46.347656 7.390625 -46.015625 Z M 7.390625 -46.015625 "/></g></g></g><g fill="#ff66c4" fill-opacity="1"><g transform="translate(234.767719, 196.340375)"><g><path d="M 43.328125 0.296875 C 42.722656 0.703125 42.054688 0.703125 41.328125 0.296875 C 39.992188 -0.296875 39.09375 -1.273438 38.625 -2.640625 C 38.164062 -4.003906 37.800781 -5.320312 37.53125 -6.59375 L 36.9375 -9.984375 L 19.5625 -41.03125 C 19.300781 -41.363281 19.035156 -41.726562 18.765625 -42.125 C 18.503906 -42.519531 18.238281 -42.882812 17.96875 -43.21875 C 18.03125 -39.832031 18.046875 -36.441406 18.015625 -33.046875 C 17.984375 -29.648438 17.96875 -26.253906 17.96875 -22.859375 C 18.101562 -20.859375 18.1875 -18.859375 18.21875 -16.859375 C 18.25 -14.867188 18.300781 -12.875 18.375 -10.875 C 18.4375 -9.882812 18.5 -8.671875 18.5625 -7.234375 C 18.632812 -5.804688 18.484375 -4.523438 18.109375 -3.390625 C 17.742188 -2.265625 16.863281 -1.597656 15.46875 -1.390625 C 14.875 -0.398438 14.0625 0.273438 13.03125 0.640625 C 12 1.015625 10.914062 1.035156 9.78125 0.703125 C 8.71875 0.429688 7.785156 -0.203125 6.984375 -1.203125 C 6.722656 -5.390625 6.507812 -9.578125 6.34375 -13.765625 C 6.175781 -17.960938 6.023438 -22.160156 5.890625 -26.359375 C 5.753906 -29.753906 5.648438 -33.164062 5.578125 -36.59375 C 5.515625 -40.019531 5.421875 -43.425781 5.296875 -46.8125 C 5.222656 -49.007812 5.171875 -51.207031 5.140625 -53.40625 C 5.109375 -55.601562 5.160156 -57.765625 5.296875 -59.890625 C 5.960938 -60.429688 6.59375 -60.734375 7.1875 -60.796875 C 7.1875 -61.597656 7.453125 -62.363281 7.984375 -63.09375 C 8.785156 -64.09375 9.679688 -64.570312 10.671875 -64.53125 C 11.671875 -64.5 12.703125 -64.132812 13.765625 -63.4375 C 14.835938 -62.738281 15.804688 -61.941406 16.671875 -61.046875 C 17.535156 -60.148438 18.203125 -59.398438 18.671875 -58.796875 C 20.398438 -56.535156 21.976562 -54.222656 23.40625 -51.859375 C 24.84375 -49.492188 26.222656 -47.082031 27.546875 -44.625 C 28.679688 -42.695312 29.78125 -40.734375 30.84375 -38.734375 C 31.90625 -36.734375 32.9375 -34.703125 33.9375 -32.640625 C 34.070312 -32.378906 34.140625 -32.046875 34.140625 -31.640625 L 35.734375 -28.546875 C 35.472656 -31.078125 35.109375 -33.640625 34.640625 -36.234375 C 34.171875 -38.828125 33.707031 -41.390625 33.25 -43.921875 C 32.914062 -45.722656 32.582031 -47.519531 32.25 -49.3125 C 31.914062 -51.113281 31.484375 -52.910156 30.953125 -54.703125 C 30.679688 -55.640625 30.425781 -56.585938 30.1875 -57.546875 C 29.957031 -58.515625 30.109375 -59.5 30.640625 -60.5 C 31.109375 -61.289062 31.675781 -61.890625 32.34375 -62.296875 C 32.34375 -62.359375 32.359375 -62.390625 32.390625 -62.390625 C 32.421875 -62.390625 32.4375 -62.425781 32.4375 -62.5 C 33.039062 -63.625 33.957031 -64.1875 35.1875 -64.1875 C 36.414062 -64.1875 37.460938 -63.890625 38.328125 -63.296875 C 38.535156 -63.222656 38.769531 -63.054688 39.03125 -62.796875 C 39.226562 -61.859375 39.457031 -60.90625 39.71875 -59.9375 C 39.988281 -58.976562 40.257812 -58.035156 40.53125 -57.109375 C 41.332031 -54.242188 42 -51.296875 42.53125 -48.265625 C 43.0625 -45.234375 43.5625 -42.222656 44.03125 -39.234375 C 45.019531 -33.171875 45.8125 -27.046875 46.40625 -20.859375 C 47.007812 -14.671875 47.515625 -8.515625 47.921875 -2.390625 C 47.390625 -1.660156 46.722656 -1.03125 45.921875 -0.5 C 45.117188 0.03125 44.253906 0.296875 43.328125 0.296875 Z M 48.921875 -3.390625 C 48.785156 -3.390625 48.648438 -3.289062 48.515625 -3.09375 C 47.847656 -12.613281 46.929688 -22.113281 45.765625 -31.59375 C 44.609375 -41.082031 42.992188 -50.453125 40.921875 -59.703125 C 40.796875 -60.097656 40.898438 -60.460938 41.234375 -60.796875 C 41.492188 -61.128906 41.859375 -61.273438 42.328125 -61.234375 C 42.796875 -61.203125 43.0625 -60.921875 43.125 -60.390625 C 44.925781 -51.742188 46.34375 -43.007812 47.375 -34.1875 C 48.40625 -25.375 48.882812 -16.539062 48.8125 -7.6875 C 48.882812 -7.351562 48.9375 -6.738281 48.96875 -5.84375 C 49 -4.945312 48.984375 -4.128906 48.921875 -3.390625 Z M 5.1875 -10.6875 C 4.925781 -14.207031 4.726562 -17.878906 4.59375 -21.703125 C 4.457031 -25.535156 4.320312 -29.25 4.1875 -32.84375 C 4.0625 -36.375 3.960938 -39.9375 3.890625 -43.53125 C 3.828125 -47.125 3.757812 -50.71875 3.6875 -54.3125 C 3.625 -55.175781 3.660156 -56.054688 3.796875 -56.953125 C 3.929688 -57.847656 4.164062 -58.695312 4.5 -59.5 C 4.425781 -57.90625 4.40625 -56.304688 4.4375 -54.703125 C 4.476562 -53.109375 4.53125 -51.515625 4.59375 -49.921875 C 4.65625 -46.453125 4.734375 -42.988281 4.828125 -39.53125 C 4.929688 -36.070312 5.019531 -32.578125 5.09375 -29.046875 L 5.984375 -6.59375 C 5.984375 -6.59375 5.898438 -6.738281 5.734375 -7.03125 C 5.566406 -7.332031 5.382812 -8.550781 5.1875 -10.6875 Z M 16.375 -15.578125 L 16.078125 -15.28125 C 16.078125 -15.28125 16.054688 -15.28125 16.015625 -15.28125 C 15.984375 -15.28125 15.9375 -15.242188 15.875 -15.171875 L 15.765625 -9.1875 C 15.765625 -8.382812 15.914062 -7.429688 16.21875 -6.328125 C 16.519531 -5.234375 16.503906 -4.054688 16.171875 -2.796875 C 16.835938 -3.929688 17.101562 -5.0625 16.96875 -6.1875 C 16.90625 -7.125 16.851562 -8.085938 16.8125 -9.078125 C 16.78125 -10.078125 16.703125 -11.078125 16.578125 -12.078125 C 16.578125 -12.679688 16.554688 -13.265625 16.515625 -13.828125 C 16.484375 -14.390625 16.4375 -14.972656 16.375 -15.578125 Z M 16.375 -15.578125 "/></g></g></g><g fill="#000000" fill-opacity="1"><g transform="translate(55.905463, 251.495784)"><g><path d="M 23.703125 0.71875 C 19.898438 0.71875 16.171875 0.0664062 12.515625 -1.234375 C 8.867188 -2.546875 5.550781 -4.554688 2.5625 -7.265625 L 9.03125 -15.015625 C 11.3125 -13.160156 13.648438 -11.6875 16.046875 -10.59375 C 18.441406 -9.507812 21.0625 -8.96875 23.90625 -8.96875 C 26.1875 -8.96875 27.957031 -9.378906 29.21875 -10.203125 C 30.476562 -11.035156 31.109375 -12.191406 31.109375 -13.671875 L 31.109375 -13.8125 C 31.109375 -14.519531 30.972656 -15.144531 30.703125 -15.6875 C 30.441406 -16.238281 29.941406 -16.75 29.203125 -17.21875 C 28.472656 -17.695312 27.457031 -18.171875 26.15625 -18.640625 C 24.851562 -19.117188 23.15625 -19.617188 21.0625 -20.140625 C 18.550781 -20.753906 16.273438 -21.441406 14.234375 -22.203125 C 12.191406 -22.960938 10.457031 -23.898438 9.03125 -25.015625 C 7.613281 -26.128906 6.515625 -27.515625 5.734375 -29.171875 C 4.953125 -30.835938 4.5625 -32.90625 4.5625 -35.375 L 4.5625 -35.515625 C 4.5625 -37.796875 4.984375 -39.847656 5.828125 -41.671875 C 6.679688 -43.492188 7.878906 -45.066406 9.421875 -46.390625 C 10.972656 -47.722656 12.816406 -48.742188 14.953125 -49.453125 C 17.085938 -50.171875 19.429688 -50.53125 21.984375 -50.53125 C 25.640625 -50.53125 29 -49.984375 32.0625 -48.890625 C 35.125 -47.804688 37.9375 -46.242188 40.5 -44.203125 L 34.796875 -35.9375 C 32.566406 -37.457031 30.382812 -38.65625 28.25 -39.53125 C 26.113281 -40.414062 23.976562 -40.859375 21.84375 -40.859375 C 19.707031 -40.859375 18.101562 -40.441406 17.03125 -39.609375 C 15.96875 -38.773438 15.4375 -37.742188 15.4375 -36.515625 L 15.4375 -36.375 C 15.4375 -35.5625 15.59375 -34.859375 15.90625 -34.265625 C 16.21875 -33.671875 16.773438 -33.132812 17.578125 -32.65625 C 18.390625 -32.1875 19.492188 -31.738281 20.890625 -31.3125 C 22.285156 -30.882812 24.050781 -30.390625 26.1875 -29.828125 C 28.707031 -29.160156 30.953125 -28.410156 32.921875 -27.578125 C 34.890625 -26.742188 36.546875 -25.742188 37.890625 -24.578125 C 39.242188 -23.421875 40.265625 -22.0625 40.953125 -20.5 C 41.640625 -18.9375 41.984375 -17.0625 41.984375 -14.875 L 41.984375 -14.734375 C 41.984375 -12.265625 41.53125 -10.066406 40.625 -8.140625 C 39.726562 -6.222656 38.472656 -4.613281 36.859375 -3.3125 C 35.253906 -2.007812 33.332031 -1.007812 31.09375 -0.3125 C 28.863281 0.375 26.398438 0.71875 23.703125 0.71875 Z M 23.703125 0.71875 "/></g></g></g><g fill="#000000" fill-opacity="1"><g transform="translate(101.452945, 251.495784)"><g><path d="M 5.984375 -49.8125 L 17.796875 -49.8125 L 30.890625 -28.75 L 43.984375 -49.8125 L 55.796875 -49.8125 L 55.796875 0 L 44.90625 0 L 44.90625 -32.53125 L 30.890625 -11.25 L 30.609375 -11.25 L 16.71875 -32.3125 L 16.71875 0 L 5.984375 0 Z M 5.984375 -49.8125 "/></g></g></g><g fill="#000000" fill-opacity="1"><g transform="translate(163.226718, 251.495784)"><g><path d="M 23.0625 -50.171875 L 33.171875 -50.171875 L 54.515625 0 L 43.0625 0 L 38.5 -11.171875 L 17.4375 -11.171875 L 12.875 0 L 1.703125 0 Z M 34.59375 -20.859375 L 27.96875 -37.015625 L 21.34375 -20.859375 Z M 34.59375 -20.859375 "/></g></g></g><g fill="#000000" fill-opacity="1"><g transform="translate(219.449397, 251.495784)"><g><path d="M 23.703125 0.71875 C 19.898438 0.71875 16.171875 0.0664062 12.515625 -1.234375 C 8.867188 -2.546875 5.550781 -4.554688 2.5625 -7.265625 L 9.03125 -15.015625 C 11.3125 -13.160156 13.648438 -11.6875 16.046875 -10.59375 C 18.441406 -9.507812 21.0625 -8.96875 23.90625 -8.96875 C 26.1875 -8.96875 27.957031 -9.378906 29.21875 -10.203125 C 30.476562 -11.035156 31.109375 -12.191406 31.109375 -13.671875 L 31.109375 -13.8125 C 31.109375 -14.519531 30.972656 -15.144531 30.703125 -15.6875 C 30.441406 -16.238281 29.941406 -16.75 29.203125 -17.21875 C 28.472656 -17.695312 27.457031 -18.171875 26.15625 -18.640625 C 24.851562 -19.117188 23.15625 -19.617188 21.0625 -20.140625 C 18.550781 -20.753906 16.273438 -21.441406 14.234375 -22.203125 C 12.191406 -22.960938 10.457031 -23.898438 9.03125 -25.015625 C 7.613281 -26.128906 6.515625 -27.515625 5.734375 -29.171875 C 4.953125 -30.835938 4.5625 -32.90625 4.5625 -35.375 L 4.5625 -35.515625 C 4.5625 -37.796875 4.984375 -39.847656 5.828125 -41.671875 C 6.679688 -43.492188 7.878906 -45.066406 9.421875 -46.390625 C 10.972656 -47.722656 12.816406 -48.742188 14.953125 -49.453125 C 17.085938 -50.171875 19.429688 -50.53125 21.984375 -50.53125 C 25.640625 -50.53125 29 -49.984375 32.0625 -48.890625 C 35.125 -47.804688 37.9375 -46.242188 40.5 -44.203125 L 34.796875 -35.9375 C 32.566406 -37.457031 30.382812 -38.65625 28.25 -39.53125 C 26.113281 -40.414062 23.976562 -40.859375 21.84375 -40.859375 C 19.707031 -40.859375 18.101562 -40.441406 17.03125 -39.609375 C 15.96875 -38.773438 15.4375 -37.742188 15.4375 -36.515625 L 15.4375 -36.375 C 15.4375 -35.5625 15.59375 -34.859375 15.90625 -34.265625 C 16.21875 -33.671875 16.773438 -33.132812 17.578125 -32.65625 C 18.390625 -32.1875 19.492188 -31.738281 20.890625 -31.3125 C 22.285156 -30.882812 24.050781 -30.390625 26.1875 -29.828125 C 28.707031 -29.160156 30.953125 -28.410156 32.921875 -27.578125 C 34.890625 -26.742188 36.546875 -25.742188 37.890625 -24.578125 C 39.242188 -23.421875 40.265625 -22.0625 40.953125 -20.5 C 41.640625 -18.9375 41.984375 -17.0625 41.984375 -14.875 L 41.984375 -14.734375 C 41.984375 -12.265625 41.53125 -10.066406 40.625 -8.140625 C 39.726562 -6.222656 38.472656 -4.613281 36.859375 -3.3125 C 35.253906 -2.007812 33.332031 -1.007812 31.09375 -0.3125 C 28.863281 0.375 26.398438 0.71875 23.703125 0.71875 Z M 23.703125 0.71875 "/></g></g></g><g fill="#000000" fill-opacity="1"><g transform="translate(264.996879, 251.495784)"><g><path d="M 5.984375 -49.8125 L 16.9375 -49.8125 L 16.9375 -30.109375 L 37.15625 -30.109375 L 37.15625 -49.8125 L 48.109375 -49.8125 L 48.109375 0 L 37.15625 0 L 37.15625 -20 L 16.9375 -20 L 16.9375 0 L 5.984375 0 Z M 5.984375 -49.8125 "/></g></g></g><g fill="#000000" fill-opacity="1"><g transform="translate(46.816196, 152.584444)"><g><path d="M 0.109375 -0.484375 L -5.34375 -1.703125 L -4.8125 -4.046875 C -4.664062 -4.734375 -4.378906 -5.242188 -3.953125 -5.578125 C -3.523438 -5.921875 -3.007812 -6.023438 -2.40625 -5.890625 L -2.390625 -5.890625 C -2.066406 -5.816406 -1.796875 -5.691406 -1.578125 -5.515625 C -1.359375 -5.335938 -1.1875 -5.125 -1.0625 -4.875 C -0.945312 -4.632812 -0.878906 -4.363281 -0.859375 -4.0625 C -0.835938 -3.757812 -0.863281 -3.441406 -0.9375 -3.109375 L -1.109375 -2.34375 L 0.453125 -2 Z M -2.296875 -2.609375 L -2.140625 -3.34375 C -2.078125 -3.601562 -2.09375 -3.828125 -2.1875 -4.015625 C -2.28125 -4.203125 -2.4375 -4.320312 -2.65625 -4.375 C -2.894531 -4.425781 -3.09375 -4.382812 -3.25 -4.25 C -3.40625 -4.113281 -3.515625 -3.914062 -3.578125 -3.65625 L -3.734375 -2.9375 Z M -2.296875 -2.609375 "/></g></g></g><g fill="#000000" fill-opacity="1"><g transform="translate(48.148465, 146.827286)"><g><path d="M 0.15625 -0.46875 L -5.140625 -2.28125 L -4.640625 -3.75 L -0.625 -2.375 L 0.265625 -4.953125 L 1.546875 -4.515625 Z M 0.15625 -0.46875 "/></g></g></g><g fill="#000000" fill-opacity="1"><g transform="translate(49.902428, 141.674948)"><g><path d="M 0.03125 -0.0625 L -4.015625 -4.65625 L -3.375 -5.984375 L 2.734375 -5.6875 L 2.015625 -4.1875 L 0.921875 -4.265625 L -0.015625 -2.3125 L 0.734375 -1.515625 Z M -0.90625 -3.25 L -0.359375 -4.390625 L -2.046875 -4.5 Z M -0.90625 -3.25 "/></g></g></g><g fill="#000000" fill-opacity="1"><g transform="translate(52.918221, 135.530244)"><g><path d="M 1.15625 -1.78125 L -0.59375 -2.921875 L -4.703125 -3.03125 L -3.734375 -4.515625 L -1.40625 -4.375 L -2.46875 -6.453125 L -1.53125 -7.90625 L 0.21875 -4.234375 L 2 -3.078125 Z M 1.15625 -1.78125 "/></g></g></g><g fill="#000000" fill-opacity="1"><g transform="translate(56.466808, 130.253136)"><g/></g></g><g fill="#000000" fill-opacity="1"><g transform="translate(58.117239, 128.015543)"><g><path d="M 2.359375 -2.328125 C 2.066406 -2.015625 1.738281 -1.773438 1.375 -1.609375 C 1.007812 -1.441406 0.640625 -1.351562 0.265625 -1.34375 C -0.0976562 -1.332031 -0.457031 -1.394531 -0.8125 -1.53125 C -1.175781 -1.664062 -1.503906 -1.867188 -1.796875 -2.140625 L -1.8125 -2.140625 C -2.101562 -2.421875 -2.320312 -2.738281 -2.46875 -3.09375 C -2.625 -3.457031 -2.703125 -3.828125 -2.703125 -4.203125 C -2.703125 -4.578125 -2.628906 -4.953125 -2.484375 -5.328125 C -2.347656 -5.703125 -2.128906 -6.046875 -1.828125 -6.359375 C -1.535156 -6.671875 -1.203125 -6.90625 -0.828125 -7.0625 C -0.460938 -7.226562 -0.0976562 -7.316406 0.265625 -7.328125 C 0.628906 -7.347656 0.988281 -7.289062 1.34375 -7.15625 C 1.707031 -7.019531 2.039062 -6.8125 2.34375 -6.53125 L 2.34375 -6.515625 C 2.632812 -6.242188 2.851562 -5.925781 3 -5.5625 C 3.144531 -5.207031 3.222656 -4.84375 3.234375 -4.46875 C 3.242188 -4.09375 3.175781 -3.71875 3.03125 -3.34375 C 2.882812 -2.976562 2.660156 -2.640625 2.359375 -2.328125 Z M 1.390625 -3.3125 C 1.523438 -3.46875 1.617188 -3.632812 1.671875 -3.8125 C 1.734375 -3.988281 1.757812 -4.164062 1.75 -4.34375 C 1.738281 -4.53125 1.691406 -4.710938 1.609375 -4.890625 C 1.523438 -5.066406 1.410156 -5.222656 1.265625 -5.359375 L 1.25 -5.359375 C 1.101562 -5.503906 0.9375 -5.613281 0.75 -5.6875 C 0.570312 -5.769531 0.390625 -5.8125 0.203125 -5.8125 C 0.0234375 -5.8125 -0.148438 -5.773438 -0.328125 -5.703125 C -0.515625 -5.640625 -0.6875 -5.53125 -0.84375 -5.375 C -0.988281 -5.21875 -1.09375 -5.046875 -1.15625 -4.859375 C -1.21875 -4.679688 -1.238281 -4.5 -1.21875 -4.3125 C -1.207031 -4.132812 -1.160156 -3.957031 -1.078125 -3.78125 C -1.003906 -3.613281 -0.890625 -3.457031 -0.734375 -3.3125 L -0.734375 -3.296875 C -0.585938 -3.160156 -0.421875 -3.050781 -0.234375 -2.96875 C -0.046875 -2.894531 0.140625 -2.859375 0.328125 -2.859375 C 0.515625 -2.859375 0.695312 -2.894531 0.875 -2.96875 C 1.0625 -3.039062 1.234375 -3.15625 1.390625 -3.3125 Z M 1.390625 -3.3125 "/></g></g></g><g fill="#000000" fill-opacity="1"><g transform="translate(63.05407, 122.890011)"><g><path d="M 0.390625 -0.3125 L -3.109375 -4.671875 L -1.984375 -5.578125 L 1.65625 -4.71875 L -0.1875 -7.015625 L 1.015625 -7.984375 L 4.515625 -3.625 L 3.453125 -2.78125 L -0.34375 -3.671875 L 1.578125 -1.265625 Z M 0.390625 -0.3125 "/></g></g></g><g fill="#000000" fill-opacity="1"><g transform="translate(68.357519, 118.689213)"><g><path d="M 2.796875 -1.578125 C 2.453125 -1.367188 2.085938 -1.234375 1.703125 -1.171875 C 1.328125 -1.117188 0.960938 -1.132812 0.609375 -1.21875 C 0.253906 -1.300781 -0.078125 -1.453125 -0.390625 -1.671875 C -0.703125 -1.890625 -0.96875 -2.175781 -1.1875 -2.53125 L -1.203125 -2.546875 C -1.410156 -2.890625 -1.539062 -3.253906 -1.59375 -3.640625 C -1.65625 -4.035156 -1.644531 -4.40625 -1.5625 -4.75 C -1.476562 -5.09375 -1.320312 -5.425781 -1.09375 -5.75 C -0.863281 -6.082031 -0.570312 -6.359375 -0.21875 -6.578125 C 0.269531 -6.867188 0.734375 -7.019531 1.171875 -7.03125 C 1.617188 -7.050781 2.035156 -6.976562 2.421875 -6.8125 L 1.90625 -5.4375 C 1.65625 -5.519531 1.414062 -5.5625 1.1875 -5.5625 C 0.96875 -5.5625 0.738281 -5.488281 0.5 -5.34375 C 0.332031 -5.238281 0.203125 -5.113281 0.109375 -4.96875 C 0.015625 -4.820312 -0.0390625 -4.660156 -0.0625 -4.484375 C -0.09375 -4.316406 -0.09375 -4.140625 -0.0625 -3.953125 C -0.03125 -3.765625 0.0390625 -3.578125 0.15625 -3.390625 C 0.269531 -3.210938 0.398438 -3.0625 0.546875 -2.9375 C 0.703125 -2.820312 0.863281 -2.734375 1.03125 -2.671875 C 1.207031 -2.617188 1.382812 -2.597656 1.5625 -2.609375 C 1.738281 -2.628906 1.910156 -2.691406 2.078125 -2.796875 C 2.328125 -2.953125 2.5 -3.132812 2.59375 -3.34375 C 2.695312 -3.550781 2.769531 -3.785156 2.8125 -4.046875 L 4.21875 -3.953125 C 4.195312 -3.503906 4.082031 -3.078125 3.875 -2.671875 C 3.675781 -2.265625 3.316406 -1.898438 2.796875 -1.578125 Z M 2.796875 -1.578125 "/></g></g></g><g fill="#000000" fill-opacity="1"><g transform="translate(73.773851, 115.395881)"><g><path d="M 0.453125 -0.203125 L -1.859375 -5.296875 L -0.453125 -5.9375 L 0.421875 -4.03125 L 2.25 -4.859375 L 1.375 -6.765625 L 2.78125 -7.40625 L 5.09375 -2.3125 L 3.6875 -1.671875 L 2.8125 -3.609375 L 0.984375 -2.78125 L 1.859375 -0.84375 Z M 0.453125 -0.203125 "/></g></g></g><g fill="#000000" fill-opacity="1"><g transform="translate(79.766135, 112.706743)"><g><path d="M 0.0625 -0.015625 L 0.6875 -6.09375 L 2.109375 -6.53125 L 6.03125 -1.84375 L 4.4375 -1.359375 L 3.765625 -2.203125 L 1.6875 -1.578125 L 1.609375 -0.484375 Z M 1.78125 -2.859375 L 2.984375 -3.234375 L 1.921875 -4.546875 Z M 1.78125 -2.859375 "/></g></g></g><g fill="#000000" fill-opacity="1"><g transform="translate(86.411307, 110.803973)"><g><path d="M 0.515625 -0.109375 L -0.59375 -5.59375 L 0.9375 -5.890625 L 2.046875 -0.40625 Z M 0.515625 -0.109375 "/></g></g></g><g fill="#000000" fill-opacity="1"><g transform="translate(89.515521, 110.119324)"><g><path d="M 0.5 -0.046875 L -0.0625 -5.609375 L 1.359375 -5.765625 L 3.96875 -3.0625 L 3.671875 -6 L 5.1875 -6.15625 L 5.75 -0.59375 L 4.421875 -0.453125 L 1.703125 -3.265625 L 2.015625 -0.203125 Z M 0.5 -0.046875 "/></g></g></g></svg>